<svg xmlns="http://www.w3.org/2000/svg" width="24" height="24" viewBox="0 0 24 24" fill="none">
    <g clip-path="url(#clip0_52_11177)">
        <path fill-rule="evenodd" clip-rule="evenodd" d="M2.08234 1.90869C1.16116 1.90869 0.402661 2.63138 0.401461 3.55943C0.377475 5.56634 0.643314 8.60328 2.0007 11.752L2.00102 11.7528C2.62519 13.1915 3.66355 14.6939 4.53285 15.8261C4.9694 16.3946 5.36709 16.8747 5.65493 17.2126C5.79891 17.3817 5.91545 17.5152 5.99556 17.6064L6.08643 17.7097L6.10355 17.7293C6.10958 17.7371 6.11596 17.7446 6.12269 17.7519C7.27496 18.998 9.37115 20.9129 12.5211 22.3012L12.5215 22.3014C15.6842 23.69 18.7579 24.0001 20.7892 24.0001C21.707 24.0001 22.482 23.2802 22.482 22.3471V18.1386C22.482 17.4889 21.9846 17.0954 21.4571 16.9693C21.428 16.9547 21.3965 16.944 21.3632 16.938C21.0399 16.8791 20.4683 16.7777 19.8245 16.6635L19.8244 16.6635C18.6538 16.4558 17.2444 16.2058 16.6543 16.0922L16.6543 16.0922L16.65 16.0914C16.2272 16.0155 15.7223 15.9986 15.2761 16.2977L15.2761 16.2977L15.2739 16.2992C14.7569 16.6514 14.2398 17.0008 13.7221 17.3506L13.7212 17.3512C13.263 17.6607 12.8044 17.9705 12.3456 18.2825C11.7715 17.9585 11.1665 17.5757 10.5222 17.1167C9.19693 16.1286 8.1143 15.002 7.19245 13.7803C6.73435 13.1631 6.36837 12.5532 6.05109 11.98C6.73429 11.0285 7.41765 10.0758 8.09058 9.123L8.0906 9.12301L8.09317 9.11928C8.37661 8.70664 8.45372 8.21506 8.31071 7.73194C8.15421 6.96355 7.65009 3.96335 7.53247 3.10411C7.45702 2.52675 7.0311 1.96887 6.34515 1.96747L2.08714 1.90872L2.08714 1.90869H2.08234Z" fill="currentColor"/>
        <path d="M20.0342 12.8803C20.0342 12.8803 20.0076 12.8803 19.9811 12.8803C19.6097 12.8538 19.3445 12.5355 19.371 12.1773C19.4108 11.607 19.4904 8.63599 17.1162 6.43426C15.0073 4.48453 12.4607 4.51106 11.718 4.56411C11.3864 4.6039 11.0415 4.3121 11.0017 3.95399C10.9752 3.58261 11.2538 3.26429 11.6119 3.23776C12.474 3.17145 15.5113 3.14492 18.0049 5.46603C20.83 8.07893 20.7239 11.5937 20.6841 12.2702C20.6576 12.615 20.3658 12.8803 20.0209 12.8803H20.0342Z" fill="currentColor"/>
        <path d="M16.3869 12.8272C16.3869 12.8272 16.3603 12.8272 16.3338 12.8272C15.9624 12.8007 15.6972 12.4824 15.7237 12.1243C15.7502 11.8325 15.7767 10.2939 14.5565 9.16653C13.4689 8.15851 12.1558 8.17177 11.7844 8.1983C11.4529 8.22482 11.0947 7.94629 11.0682 7.58818C11.0417 7.2168 11.3202 6.91174 11.6783 6.88521C12.1823 6.84542 13.9862 6.83216 15.4584 8.1983C17.1164 9.73686 17.0633 11.8192 17.0368 12.2171C17.0103 12.562 16.7185 12.8405 16.3736 12.8405L16.3869 12.8272Z" fill="currentColor"/>
        <path d="M23.3102 12.8273C23.3102 12.8273 23.2837 12.8273 23.2704 12.8273C22.8991 12.814 22.6205 12.4957 22.6471 12.1376C22.6868 11.3285 22.7266 7.11074 19.3444 4.02035C16.4 1.3146 12.8188 1.28807 11.7975 1.34113C11.4394 1.39418 11.1211 1.07586 11.0946 0.717744C11.068 0.346366 11.3598 0.0413067 11.718 0.0147798C12.8719 -0.0515376 16.904 -0.0250106 20.2331 3.03885C24.0397 6.54041 23.9999 11.2887 23.9601 12.2039C23.9469 12.562 23.6551 12.8273 23.297 12.8273H23.3102Z" fill="currentColor"/>
    </g>
    <defs>
        <clipPath id="clip0_52_11177">
            <rect width="24" height="24" fill="white"/>
        </clipPath>
    </defs>
</svg>