<svg xmlns="http://www.w3.org/2000/svg" width="24" height="24" viewBox="0 0 24 24" fill="none">
    <path fill-rule="evenodd" clip-rule="evenodd" d="M12.3913 1C11.0706 1 10 2.05117 10 3.34786C10 4.64455 11.0706 5.69573 12.3913 5.69573C13.712 5.69573 14.7826 4.64455 14.7826 3.34786C14.7826 2.05117 13.712 1 12.3913 1ZM12.3913 9.65213C11.0706 9.65213 10 10.7033 10 12C10 13.2967 11.0706 14.3479 12.3913 14.3479C13.712 14.3479 14.7826 13.2967 14.7826 12C14.7826 10.7033 13.712 9.65213 12.3913 9.65213ZM12.3913 18.3043C11.0706 18.3043 10 19.3554 10 20.6521C10 21.9488 11.0706 23 12.3913 23C13.712 23 14.7826 21.9488 14.7826 20.6521C14.7826 19.3554 13.712 18.3043 12.3913 18.3043Z" fill="currentColor"/>
</svg>