<svg viewBox="0 0 24 24" fill="none" xmlns="http://www.w3.org/2000/svg">
    <g clip-path="url(#clip0_52_11248)">
        <g clip-path="url(#clip1_52_11248)">
            <path d="M12.0638 11.7418H11.8907C10.9245 11.7418 10.1412 12.54 10.1412 13.5247V17.9725C10.1412 18.9572 10.9245 19.7554 11.8907 19.7554H12.0638C13.03 19.7554 13.8132 18.9572 13.8132 17.9725V13.5247C13.8132 12.54 13.03 11.7418 12.0638 11.7418Z" fill="currentColor"/>
            <path fill-rule="evenodd" clip-rule="evenodd" d="M11.8907 12.2418C11.2095 12.2418 10.6412 12.8072 10.6412 13.5247V17.9725C10.6412 18.69 11.2095 19.2554 11.8907 19.2554H12.0638C12.7449 19.2554 13.3132 18.69 13.3132 17.9725V13.5247C13.3132 12.8072 12.7449 12.2418 12.0638 12.2418H11.8907ZM9.64124 13.5247C9.64124 12.2729 10.6395 11.2418 11.8907 11.2418H12.0638C13.315 11.2418 14.3132 12.2729 14.3132 13.5247V17.9725C14.3132 19.2244 13.315 20.2554 12.0638 20.2554H11.8907C10.6395 20.2554 9.64124 19.2244 9.64124 17.9725V13.5247Z" fill="currentColor"/>
            <path fill-rule="evenodd" clip-rule="evenodd" d="M8.47946 17.3896C8.75529 17.4028 8.96821 17.6371 8.95504 17.9129C8.86678 19.761 10.2395 21.2534 11.7955 21.3551C13.4826 21.4645 15.133 19.9188 15.0449 17.911C15.0328 17.6351 15.2467 17.4016 15.5225 17.3895C15.7984 17.3774 16.0319 17.5913 16.044 17.8671C16.1563 20.4279 14.0528 22.5036 11.7308 22.353L11.7306 22.353C9.58728 22.2131 7.84399 20.2142 7.95618 17.8652C7.96935 17.5894 8.20363 17.3764 8.47946 17.3896Z" fill="currentColor"/>
            <path fill-rule="evenodd" clip-rule="evenodd" d="M11.9909 21.354C12.267 21.354 12.4909 21.5779 12.4909 21.854V23.5161C12.4909 23.7923 12.267 24.0161 11.9909 24.0161C11.7148 24.0161 11.4909 23.7923 11.4909 23.5161V21.854C11.4909 21.5779 11.7148 21.354 11.9909 21.354Z" fill="currentColor"/>
            <path fill-rule="evenodd" clip-rule="evenodd" d="M9.86902 23.8134C9.86902 23.5372 10.0929 23.3134 10.369 23.3134H13.6401C13.9162 23.3134 14.1401 23.5372 14.1401 23.8134C14.1401 24.0895 13.9162 24.3134 13.6401 24.3134H10.369C10.0929 24.3134 9.86902 24.0895 9.86902 23.8134Z" fill="currentColor"/>
        </g>
        <path d="M18.4959 7.88957C18.4959 7.88957 18.4771 7.90832 18.4584 7.92708C18.177 8.17093 17.7644 8.13341 17.5299 7.86143C17.1547 7.43001 15.1102 5.27291 11.8745 5.39483C9.00466 5.50738 7.22271 7.32684 6.73502 7.88957C6.52868 8.15217 6.07851 8.18968 5.79715 7.96459C5.51579 7.72075 5.48765 7.29871 5.72212 7.02673C6.28484 6.37022 8.4138 4.20374 11.8183 4.08182C15.6635 3.93176 18.0738 6.49214 18.524 6.99859C18.7491 7.26119 18.7304 7.6551 18.4865 7.89894L18.4959 7.88957Z" fill="currentColor"/>
        <path d="M15.8793 10.4311C15.8793 10.4311 15.8606 10.4499 15.8418 10.4686C15.5604 10.7125 15.1478 10.675 14.9133 10.403C14.7257 10.1779 13.6566 9.07122 11.9965 9.13687C10.5147 9.19314 9.5956 10.131 9.35176 10.4124C9.13605 10.6656 8.68587 10.7219 8.41389 10.4874C8.13253 10.2436 8.11377 9.83089 8.34824 9.55891C8.67649 9.17439 9.94261 7.88951 11.9497 7.81448C14.2099 7.73007 15.6449 9.24004 15.9075 9.54016C16.1325 9.80276 16.1232 10.206 15.8793 10.4499V10.4311Z" fill="currentColor"/>
        <path d="M20.7749 5.53555C20.7749 5.53555 20.7561 5.55431 20.7468 5.56369C20.4748 5.81691 20.0527 5.78878 19.8183 5.5168C19.2743 4.91656 16.32 1.906 11.7432 2.11233C7.7479 2.28115 5.19689 4.79464 4.51225 5.55431C4.29654 5.84505 3.84636 5.84505 3.57438 5.61058C3.29302 5.36674 3.28364 4.9447 3.51811 4.67271C4.28716 3.80988 7.15704 0.977511 11.6776 0.789937C16.8452 0.574227 20.1747 3.95993 20.7937 4.6352C21.0375 4.8978 21.0187 5.29171 20.7655 5.54493L20.7749 5.53555Z" fill="currentColor"/>
    </g>
    <defs>
        <clipPath id="clip0_52_11248">
            <rect width="24" height="24" fill="white"/>
        </clipPath>
        <clipPath id="clip1_52_11248">
            <rect width="8" height="13" fill="white" transform="translate(8 11.2776)"/>
        </clipPath>
    </defs>
</svg>
