<svg viewBox="0 0 24 24" fill="none" xmlns="http://www.w3.org/2000/svg">
    <path fill-rule="evenodd" clip-rule="evenodd" d="M9.66989 12.7704C9.66989 11.5254 10.6561 10.5 11.8923 10.5H12.0634C13.2995 10.5 14.2858 11.5254 14.2858 12.7704V17.1939C14.2858 18.4389 13.2995 19.4643 12.0634 19.4643H11.8923C10.6561 19.4643 9.66989 18.4389 9.66989 17.1939V12.7704ZM8.99194 17.1345C9.00495 16.8602 8.79458 16.6272 8.52207 16.6141C8.24955 16.601 8.01808 16.8127 8.00507 17.0871C7.89839 19.3355 9.48979 21.2614 11.4973 21.5269V22.5055H10.3889C10.1161 22.5055 9.89494 22.7281 9.89494 23.0027C9.89494 23.2774 10.1161 23.5 10.3889 23.5H13.6207C13.8936 23.5 14.1147 23.2774 14.1147 23.0027C14.1147 22.7281 13.8936 22.5055 13.6207 22.5055H12.4853V21.5211C14.4616 21.2374 16.0945 19.3539 15.9957 17.089C15.9838 16.8146 15.7531 16.602 15.4806 16.614C15.208 16.626 14.9967 16.8582 15.0087 17.1326C15.0912 19.0249 13.6311 20.5046 12.0594 20.5616C12.0372 20.5585 12.0144 20.5569 11.9913 20.5569C11.9653 20.5569 11.9398 20.559 11.9149 20.5628C11.8761 20.5621 11.8372 20.5604 11.7983 20.5579C10.261 20.4568 8.90473 18.9725 8.99194 17.1345Z" fill="currentColor"/>
    <path d="M15.981 9.27315C15.981 9.41741 15.9285 9.56166 15.8368 9.67968C15.6138 9.96818 15.1942 10.0075 14.9188 9.78459C14.6041 9.52232 12.9124 8.27651 10.9322 8.77483C10.2765 8.94531 9.68639 9.27315 9.16184 9.74525C8.89957 9.99441 8.47993 9.96818 8.23077 9.70591C7.9816 9.44363 8.00783 9.02399 8.27011 8.77483C8.96514 8.14537 9.75196 7.71262 10.6044 7.48968C13.2009 6.83399 15.3384 8.42076 15.745 8.7486C15.9023 8.87974 15.9941 9.06333 15.9941 9.26004L15.981 9.27315Z" fill="currentColor"/>
    <path d="M18.4329 6.50606C18.4329 6.65032 18.3805 6.79457 18.2887 6.91259C18.0657 7.20109 17.6461 7.24043 17.3707 7.0175C16.5052 6.33558 14.6824 5.19469 12.1252 5.2078C9.60736 5.2078 7.81078 6.3487 6.95838 7.0175C6.66988 7.24043 6.26335 7.18798 6.04042 6.91259C5.81748 6.62409 5.86994 6.21756 6.14533 5.99463C7.12886 5.22091 9.20084 3.92265 12.1121 3.90954C15.0627 3.89642 17.1871 5.2078 18.1838 5.99463C18.3411 6.12576 18.4329 6.32247 18.4329 6.50606Z" fill="currentColor"/>
    <path d="M20.0461 3.71297C20.0461 3.85722 19.9936 4.00148 19.9018 4.1195C19.6789 4.408 19.2592 4.44734 18.9838 4.22441C17.8298 3.31956 15.3776 1.79836 11.968 1.81148C8.59773 1.82459 6.19791 3.33267 5.05701 4.22441C4.76851 4.44734 4.36198 4.39489 4.13905 4.1195C3.91612 3.831 3.96857 3.42447 4.24396 3.20154C5.516 2.20489 8.1912 0.526326 11.9549 0.500099C15.771 0.486985 18.5117 2.17866 19.7969 3.20153C19.9543 3.33267 20.0461 3.52938 20.0461 3.71297Z" fill="currentColor"/>
</svg>
