<svg xmlns="http://www.w3.org/2000/svg" width="20" height="20" viewBox="0 0 20 20" fill="none">
    <g clip-path="url(#clip0_52_11209)">
        <path fill-rule="evenodd" clip-rule="evenodd" d="M1.59191 0.088501C0.764887 0.088501 0.0839103 0.737321 0.0828325 1.57052C0.0612983 3.37231 0.299967 6.09885 1.51862 8.92577C2.07899 10.2174 3.01151 11.5669 3.79196 12.5834C4.18389 13.0939 4.54094 13.5248 4.79935 13.8282C4.92862 13.98 5.03325 14.0999 5.10517 14.1818L5.18676 14.2745L5.20213 14.2921C5.20753 14.2991 5.21326 14.3058 5.21931 14.3124C6.2538 15.4311 8.13575 17.1503 10.9637 18.3967C13.8032 19.6434 16.5631 19.9219 18.3868 19.9219C19.2108 19.9219 19.9066 19.2757 19.9066 18.4379V14.6596C19.9066 14.0762 19.46 13.723 18.9864 13.6098C18.9603 13.5967 18.932 13.5871 18.9021 13.5817C18.6119 13.5289 18.0987 13.4378 17.5207 13.3353C16.4697 13.1488 15.2043 12.9243 14.6745 12.8224L14.6707 12.8217C14.2911 12.7535 13.8378 12.7383 13.4371 13.0069L13.4352 13.0082C12.971 13.3244 12.5068 13.638 12.042 13.9521C11.6307 14.23 11.2181 14.5087 10.8062 14.7888C10.2907 14.4979 9.74763 14.1542 9.16913 13.7421C7.97933 12.855 7.00736 11.8436 6.17973 10.7468C5.76845 10.1926 5.43987 9.64505 5.15502 9.13047C5.76839 8.27617 6.38191 7.42088 6.98606 6.56545L6.98839 6.56211C7.24286 6.19164 7.31209 5.75031 7.18369 5.31657C7.04319 4.62672 6.59059 1.93316 6.485 1.16173C6.41725 0.643389 6.03487 0.142532 5.41903 0.141274L1.59622 0.0885307L1.59191 0.088501Z" fill="currentColor"/>
    </g>
    <defs>
        <clipPath id="clip0_52_11209">
            <rect width="20" height="20" fill="white"/>
        </clipPath>
    </defs>
</svg>