<svg viewBox="0 0 40 40" fill="none" xmlns="http://www.w3.org/2000/svg">
    <circle cx="20" cy="20" r="20" fill="currentColor"/>
    <path fill-rule="evenodd" clip-rule="evenodd" d="M12.49 11.0049C11.6681 11.0049 10.9963 11.6572 10.995 12.4875C10.9748 14.2015 11.1993 16.7966 12.3453 19.4876C12.8736 20.7203 13.7508 22.0043 14.4825 22.969C14.8503 23.454 15.1854 23.8634 15.4279 24.1516C15.5492 24.2958 15.6474 24.4097 15.7149 24.4875L15.7913 24.5754L15.8041 24.5902C15.8101 24.598 15.8164 24.6055 15.8231 24.6128C16.7963 25.6782 18.5671 27.3155 21.2277 28.5026C23.8993 29.69 26.4949 29.9549 28.21 29.9549C29.0283 29.9549 29.715 29.3057 29.715 28.4699V24.8899C29.715 24.2951 29.2668 23.9374 28.8008 23.8211C28.7718 23.8073 28.7407 23.7971 28.7079 23.7911C28.4354 23.7409 27.9543 23.6545 27.4128 23.5572L27.4127 23.5572C26.4295 23.3807 25.2471 23.1683 24.7517 23.0718L24.7471 23.0709C24.384 23.0049 23.9319 22.9864 23.5294 23.2596L23.5271 23.2612C23.0929 23.5606 22.6583 23.8579 22.2233 24.1553C21.8527 24.4088 21.4817 24.6626 21.1104 24.918C20.6447 24.6497 20.1542 24.3342 19.6326 23.9581C18.5263 23.123 17.6221 22.1707 16.8516 21.137C16.4804 20.6307 16.1813 20.1298 15.921 19.6562C16.4859 18.8598 17.051 18.0622 17.6076 17.2645L17.6103 17.2604C17.8611 16.8909 17.9294 16.4505 17.8043 16.0193C17.6724 15.3627 17.2503 12.8195 17.1518 12.0908C17.0852 11.5763 16.7052 11.0565 16.0729 11.0549L12.4952 11.0049H12.49Z" fill="white"/>
</svg>
