<svg xmlns="http://www.w3.org/2000/svg" width="8" height="8" viewBox="0 0 8 8" fill="none">
    <path fill-rule="evenodd" clip-rule="evenodd" d="M1.45358 0.811032C1.24977 0.607479 0.919081 0.607228 0.714961 0.810472C0.510841 1.01372 0.51059 1.34349 0.714399 1.54704L3.09106 3.9207L0.714399 6.29436C0.51059 6.49792 0.510841 6.82769 0.714961 7.03093C0.919081 7.23418 1.24977 7.23393 1.45358 7.03037L3.82912 4.65783L6.20465 7.03037C6.40846 7.23393 6.73916 7.23418 6.94327 7.03093C7.14739 6.82769 7.14765 6.49792 6.94384 6.29436L4.56718 3.9207L6.94384 1.54704C7.14765 1.34349 7.1474 1.01372 6.94327 0.810472C6.73916 0.607228 6.40846 0.607479 6.20465 0.811032L3.82912 3.18357L1.45358 0.811032Z" fill="currentColor"/>
</svg>