<svg xmlns="http://www.w3.org/2000/svg" width="20" height="20" viewBox="0 0 20 20" fill="none">
    <path fill-rule="evenodd" clip-rule="evenodd" d="M5.06694 4.18306C4.82286 3.93898 4.42714 3.93898 4.18306 4.18306C3.93898 4.42714 3.93898 4.82286 4.18306 5.06694L8.99112 9.875L4.18306 14.6831C3.93898 14.9271 3.93898 15.3229 4.18306 15.5669C4.42714 15.811 4.82286 15.811 5.06694 15.5669L9.875 10.7589L14.6831 15.5669C14.9271 15.811 15.3229 15.811 15.5669 15.5669C15.811 15.3229 15.811 14.9271 15.5669 14.6831L10.7589 9.875L15.5669 5.06694C15.811 4.82286 15.811 4.42714 15.5669 4.18306C15.3229 3.93898 14.9271 3.93898 14.6831 4.18306L9.875 8.99112L5.06694 4.18306Z" fill="currentColor"/>
</svg>