<svg xmlns="http://www.w3.org/2000/svg" viewBox="0 0 35 40" fill="none">
    <g clip-path="url(#clip0_52_11355)">
        <path fill-rule="evenodd" clip-rule="evenodd" d="M3.58904 16.4934C2.89314 16.4934 2.329 17.0575 2.329 17.7534V24.379C2.329 25.0749 2.89314 25.639 3.58904 25.639H30.8424C31.5383 25.639 32.1025 25.0749 32.1025 24.379V17.7534C32.1025 17.0575 31.5383 16.4934 30.8424 16.4934H3.58904ZM0.242859 17.7534C0.242859 15.9054 1.74099 14.4072 3.58904 14.4072H30.8424C32.6905 14.4072 34.1886 15.9054 34.1886 17.7534V24.379C34.1886 26.227 32.6905 27.7252 30.8424 27.7252H3.58904C1.74099 27.7252 0.242859 26.227 0.242859 24.379V17.7534Z" fill="currentColor"/>
        <path d="M27.7383 23.5444C29.084 23.5444 30.1749 22.4535 30.1749 21.1078C30.1749 19.7621 29.084 18.6711 27.7383 18.6711C26.3925 18.6711 25.3016 19.7621 25.3016 21.1078C25.3016 22.4535 26.3925 23.5444 27.7383 23.5444Z" fill="currentColor"/>
        <path d="M21.6467 23.5444C22.9924 23.5444 24.0833 22.4535 24.0833 21.1078C24.0833 19.7621 22.9924 18.6711 21.6467 18.6711C20.301 18.6711 19.2101 19.7621 19.2101 21.1078C19.2101 22.4535 20.301 23.5444 21.6467 23.5444Z" fill="currentColor"/>
        <path fill-rule="evenodd" clip-rule="evenodd" d="M4.34845 20.891C4.34845 20.3149 4.81545 19.8479 5.39152 19.8479H16.5566C17.1326 19.8479 17.5996 20.3149 17.5996 20.891C17.5996 21.467 17.1326 21.934 16.5566 21.934H5.39152C4.81545 21.934 4.34845 21.467 4.34845 20.891Z" fill="currentColor"/>
        <path fill-rule="evenodd" clip-rule="evenodd" d="M17.4578 32.6318C15.9968 32.6318 14.8125 33.8161 14.8125 35.277C14.8125 36.738 15.9968 37.9223 17.4578 37.9223C18.9187 37.9223 20.103 36.738 20.103 35.277C20.103 33.8161 18.9187 32.6318 17.4578 32.6318ZM12.7264 35.277C12.7264 32.664 14.8447 30.5457 17.4578 30.5457C20.0708 30.5457 22.1891 32.664 22.1891 35.277C22.1891 37.8901 20.0708 40.0084 17.4578 40.0084C14.8447 40.0084 12.7264 37.8901 12.7264 35.277Z" fill="currentColor"/>
        <path fill-rule="evenodd" clip-rule="evenodd" d="M20.5036 34.9598C20.5036 34.3837 20.9706 33.9167 21.5467 33.9167H33.1623C33.7384 33.9167 34.2054 34.3837 34.2054 34.9598C34.2054 35.5359 33.7384 36.0029 33.1623 36.0029H21.5467C20.9706 36.0029 20.5036 35.5359 20.5036 34.9598Z" fill="currentColor"/>
        <path fill-rule="evenodd" clip-rule="evenodd" d="M0.342957 34.9598C0.342957 34.3837 0.809956 33.9167 1.38603 33.9167H13.0017C13.5778 33.9167 14.0448 34.3837 14.0448 34.9598C14.0448 35.5359 13.5778 36.0029 13.0017 36.0029H1.38603C0.809956 36.0029 0.342957 35.5359 0.342957 34.9598Z" fill="currentColor"/>
        <path fill-rule="evenodd" clip-rule="evenodd" d="M17.4411 9.38379C18.0172 9.38379 18.4842 9.85079 18.4842 10.4269V15.2C18.4842 15.776 18.0172 16.243 17.4411 16.243C16.865 16.243 16.398 15.776 16.398 15.2V10.4269C16.398 9.85079 16.865 9.38379 17.4411 9.38379Z" fill="currentColor"/>
        <path fill-rule="evenodd" clip-rule="evenodd" d="M17.4411 25.6223C18.0172 25.6223 18.4842 26.0893 18.4842 26.6654V31.1381C18.4842 31.7142 18.0172 32.1812 17.4411 32.1812C16.865 32.1812 16.398 31.7142 16.398 31.1381V26.6654C16.398 26.0893 16.865 25.6223 17.4411 25.6223Z" fill="currentColor"/>
        <path fill-rule="evenodd" clip-rule="evenodd" d="M17.5078 2.27413C13.5778 2.27413 10.3899 5.46206 10.3899 9.39206C10.3899 9.96813 9.92292 10.4351 9.34684 10.4351C8.77077 10.4351 8.30377 9.96813 8.30377 9.39206C8.30377 4.30991 12.4257 0.187988 17.5078 0.187988C22.5914 0.187988 26.6952 4.31131 26.6952 9.37537C26.6952 9.95144 26.2282 10.4184 25.6522 10.4184C25.0761 10.4184 24.6091 9.95144 24.6091 9.37537C24.6091 5.46067 21.4365 2.27413 17.5078 2.27413Z" fill="currentColor"/>
        <path fill-rule="evenodd" clip-rule="evenodd" d="M17.5079 6.54659C15.934 6.54659 14.6624 7.82904 14.6624 9.3921C14.6624 9.96817 14.1954 10.4352 13.6193 10.4352C13.0432 10.4352 12.5762 9.96817 12.5762 9.3921C12.5762 6.68273 14.776 4.46045 17.5079 4.46045C20.2369 4.46045 22.4395 6.66312 22.4395 9.3921C22.4395 9.96817 21.9725 10.4352 21.3965 10.4352C20.8204 10.4352 20.3534 9.96817 20.3534 9.3921C20.3534 7.81527 19.0847 6.54659 17.5079 6.54659Z" fill="currentColor"/>
    </g>
    <defs>
        <clipPath id="clip0_52_11355">
            <rect width="33.9458" height="39.8036" fill="white" transform="translate(0.251221 0.196289)"/>
        </clipPath>
    </defs>
</svg>
