<svg viewBox="0 0 40 40" fill="none" xmlns="http://www.w3.org/2000/svg">
    <circle cx="20" cy="20" r="20" fill="currentColor"/>
    <g clip-path="url(#clip0_52_11118)">
        <path fill-rule="evenodd" clip-rule="evenodd" d="M32.6212 21.6063C33.2024 21.0251 33.2162 20.0889 32.63 19.5008C31.4323 18.2746 29.4384 16.5983 26.7253 15.5058C25.4802 15.0078 23.9519 14.72 22.7524 14.5553C22.1494 14.4725 21.623 14.4199 21.2477 14.3876C21.0599 14.3714 20.9099 14.3603 20.8072 14.353L20.6911 14.3449L20.6715 14.3434C20.6618 14.3422 20.652 14.3414 20.6421 14.3409C19.2006 14.2758 16.7907 14.3701 14.07 15.4121C11.3413 16.4616 9.31856 18.1096 8.10583 19.3224C7.52719 19.901 7.5007 20.8456 8.09169 21.4366L10.6231 23.9681C11.0437 24.3886 11.6135 24.3247 12.0253 24.0774C12.0555 24.0666 12.0848 24.0518 12.1122 24.0329C12.3404 23.8757 12.7417 23.5966 13.1934 23.2825L13.1934 23.2824C14.0135 22.7121 14.9998 22.0261 15.4183 21.7441L15.4222 21.7414C15.7255 21.5314 16.0583 21.2247 16.1498 20.747L16.1503 20.7442C16.2456 20.2255 16.3427 19.708 16.44 19.19C16.5228 18.7488 16.6057 18.307 16.6876 17.8639C17.2067 17.7242 17.7765 17.6005 18.4113 17.4976C19.784 17.3058 21.0968 17.3399 22.3726 17.5259C22.9931 17.6215 23.5587 17.7642 24.0777 17.915C24.2414 18.8776 24.4058 19.8411 24.5764 20.7988L24.5773 20.8036C24.6613 21.2422 24.9243 21.6019 25.3177 21.8183C25.8752 22.1894 27.9721 23.6893 28.557 24.1348C28.9678 24.4516 29.6041 24.5505 30.0524 24.1044L32.6175 21.61L32.6212 21.6063Z" fill="white"/>
    </g>
    <defs>
        <clipPath id="clip0_52_11118">
            <rect width="18.72" height="18.95" fill="white" transform="translate(33.6783 20.5564) rotate(135)"/>
        </clipPath>
    </defs>
</svg>
