<svg xmlns="http://www.w3.org/2000/svg" viewBox="0 0 24 24" fill="none">
    <path fill-rule="evenodd" clip-rule="evenodd" d="M23.4107 13.1196C23.9636 12.5668 23.977 11.6757 23.419 11.1159C22.2971 9.96731 20.4293 8.39693 17.8873 7.37338C16.7198 6.90635 15.2878 6.6369 14.1652 6.48271C13.6006 6.40517 13.1077 6.35595 12.7564 6.32568C12.5806 6.31054 12.4401 6.30013 12.3439 6.29331L12.2353 6.28572L12.2177 6.28441C12.2082 6.28324 12.1986 6.28243 12.1889 6.28199C10.8382 6.22091 8.58031 6.30935 6.0313 7.28556C3.47464 8.2689 1.57976 9.81285 0.443719 10.9489C-0.106622 11.4992 -0.132196 12.3982 0.430489 12.9609L2.79851 15.3289C3.20162 15.732 3.7462 15.6701 4.13765 15.4361C4.16707 15.4254 4.19553 15.4109 4.2223 15.3924C4.43585 15.2453 4.81106 14.9843 5.23338 14.6906L5.23431 14.69C6.0013 14.1565 6.92338 13.5152 7.31477 13.2515L7.31864 13.2488C7.60421 13.0511 7.92191 12.7595 8.00929 12.3032L8.0098 12.3005C8.09894 11.8151 8.18976 11.3313 8.28073 10.8467C8.35726 10.439 8.43393 10.0305 8.50962 9.62109C8.99033 9.49232 9.51772 9.37816 10.1046 9.28301C11.3861 9.10402 12.6117 9.13574 13.8031 9.3095C14.3763 9.39777 14.8995 9.52923 15.3803 9.66852C15.5326 10.564 15.6856 11.4604 15.8442 12.3514L15.8452 12.3561C15.925 12.7733 16.1753 13.1156 16.549 13.3216C17.0712 13.6692 19.0304 15.0707 19.577 15.487C19.9678 15.7883 20.5771 15.8848 21.0076 15.4566L23.407 13.1233L23.4107 13.1196Z" fill="currentColor"/>
</svg>
