<svg xmlns="http://www.w3.org/2000/svg" width="24" height="24" viewBox="0 0 24 24" fill="none">
    <path fill-rule="evenodd" clip-rule="evenodd" d="M8.50082 4.75C8.37992 4.75 8.26213 4.80272 8.18156 4.89511L8.17817 4.899L2.35892 11.4625C2.21606 11.6212 2.21335 11.86 2.34994 12.0202L2.35125 12.0218L8.17384 18.8975C8.25735 18.9917 8.38545 19.05 8.51085 19.05H21.3164C21.5519 19.05 21.7426 18.8598 21.7426 18.625V5.175C21.7426 4.94018 21.5519 4.75 21.3164 4.75H8.50082ZM7.23755 4.07275C7.55803 3.70648 8.02098 3.5 8.50082 3.5H21.3164C22.2442 3.5 22.9961 4.24982 22.9961 5.175V18.625C22.9961 19.5502 22.2442 20.3 21.3164 20.3H8.51085C8.01568 20.3 7.54333 20.0794 7.22565 19.7151L7.2197 19.7083L1.39487 12.8298L1.39418 12.829C0.850133 12.1899 0.867123 11.2505 1.42431 10.6294L7.23755 4.07275ZM19.1319 8.17271C19.3769 8.4166 19.3772 8.81233 19.1326 9.0566L16.2806 11.905L19.1326 14.7534C19.3772 14.9976 19.3769 15.3934 19.1319 15.6373C18.887 15.8812 18.4902 15.8809 18.2456 15.6366L15.395 12.7895L12.5443 15.6366C12.2997 15.8809 11.9029 15.8812 11.658 15.6373C11.413 15.3934 11.4127 14.9976 11.6573 14.7534L14.5093 11.905L11.6573 9.0566C11.4127 8.81233 11.413 8.4166 11.658 8.17271C11.9029 7.92882 12.2997 7.92912 12.5443 8.17338L15.395 11.0204L18.2456 8.17338C18.4902 7.92912 18.887 7.92882 19.1319 8.17271Z" fill="currentColor"/>
</svg>