MergeIcon<svg xmlns="http://www.w3.org/2000/svg" width="15" height="16" viewBox="0 0 13 14" fill="none">
    <path d="M2.30442 0.118511C2.30442 0.118511 2.23912 0.119128 2.21131 0.13805C2.17408 0.147731 2.15568 0.175894 2.11854 0.194905C2.09997 0.20441 2.08141 0.213915 2.06292 0.232749L0.176034 1.96725C0.0742086 2.05218 0.0194684 2.18331 0.0207019 2.31391L0.106781 11.4283C0.108102 11.5682 0.174638 11.6982 0.278137 11.7905L2.20546 13.349C2.20546 13.349 2.24295 13.3674 2.2617 13.3765C2.28986 13.3949 2.31802 13.4133 2.3461 13.4224C2.37417 13.4314 2.41157 13.4404 2.43956 13.4401C2.45822 13.44 2.47697 13.4491 2.50495 13.4488L12.5336 13.3541C12.7948 13.3517 12.9981 13.1445 12.9956 12.8833L12.8783 0.466476C12.8759 0.205266 12.6687 0.00196864 12.4075 0.00443558L2.37887 0.0991487C2.37887 0.0991487 2.33232 0.108918 2.31366 0.109094L2.30442 0.118511ZM11.9499 0.951062L12.0583 12.4256L2.96259 12.5115L2.85413 1.02764L11.9498 0.941733L11.9499 0.951062Z" fill="currentColor"/>
    <path d="M8.18409 4.27997C7.99927 4.46831 8.002 4.75751 8.19034 4.94233L9.46164 6.18984L4.3214 6.23838C4.06019 6.24085 3.85689 6.44803 3.85936 6.70924C3.86183 6.97045 4.069 7.17374 4.33021 7.17128L9.47045 7.12273L8.2137 8.40345C8.02888 8.59179 8.03161 8.88098 8.21995 9.0658C8.4083 9.25062 8.69749 9.24789 8.88231 9.05955L10.9245 6.97838C11.0077 6.89363 11.0625 6.77182 11.0614 6.65055C11.0602 6.52927 11.0124 6.40844 10.9184 6.32536L8.8372 4.28313C8.64886 4.09832 8.35966 4.10105 8.17484 4.28939L8.18409 4.27997Z" fill="currentColor"/>
</svg>