<svg width="24" height="24" viewBox="0 0 24 24" fill="none" xmlns="http://www.w3.org/2000/svg">
    <g clip-path="url(#clip0_52_11420)">
        <path d="M21.8546 12.0257H20.6694C20.5366 6.06314 17.3386 2.5 12.036 2.5C6.73328 2.5 3.48424 6.14553 3.3412 12.0257H2.13558C0.950399 12.0257 -0.0100098 12.9938 -0.0100098 14.1883V19.3374C-0.0100098 20.532 0.950399 21.5 2.13558 21.5H3.98488H4.00532H4.02575H4.15857V21.4691C4.46509 21.397 4.68986 21.1293 4.68986 20.81V12.4068C4.7103 7.07236 7.44848 3.89024 12.0462 3.89024C18.6056 3.89024 19.3106 9.84255 19.3106 12.4068V20.81C19.3106 21.1293 19.5353 21.3867 19.8316 21.4691V21.4897H19.9542C19.9542 21.4897 19.9849 21.5 20.0053 21.5C20.0257 21.5 20.036 21.5 20.0564 21.4897H21.8648C23.05 21.4897 24.0104 20.5217 24.0104 19.3271V14.178C24.0104 12.9835 23.05 12.0154 21.8648 12.0154L21.8546 12.0257Z" fill="currentColor"/>
        <path d="M17.788 12.0155H17.0115C16.7124 12.0155 16.47 12.2599 16.47 12.5613V20.944C16.47 21.2454 16.7124 21.4898 17.0115 21.4898H17.788C18.087 21.4898 18.3295 21.2454 18.3295 20.944V12.5613C18.3295 12.2599 18.087 12.0155 17.788 12.0155Z" fill="currentColor"/>
        <path d="M6.98848 12.0155H6.21198C5.91291 12.0155 5.67047 12.2599 5.67047 12.5613V20.944C5.67047 21.2454 5.91291 21.4898 6.21198 21.4898H6.98848C7.28754 21.4898 7.52999 21.2454 7.52999 20.944V12.5613C7.52999 12.2599 7.28754 12.0155 6.98848 12.0155Z" fill="currentColor"/>
    </g>
    <defs>
        <clipPath id="clip0_52_11420">
            <rect width="24" height="19" fill="white" transform="translate(0 2.5)"/>
        </clipPath>
    </defs>
</svg>
