<svg xmlns="http://www.w3.org/2000/svg" viewBox="0 0 24 24" fill="none">
    <path fill-rule="evenodd" clip-rule="evenodd" d="M2.35098 12.3301C4.165 8.62382 7.96201 6.25981 12.0901 6.28798C16.1509 6.32624 19.8613 8.67201 21.6444 12.3301C19.8613 15.9881 16.1509 18.3339 12.0901 18.3721C7.96199 18.4003 4.165 16.0363 2.35098 12.3301ZM1.04513 12.5791C1.04826 12.5865 1.05153 12.5939 1.05494 12.6013C3.02544 16.919 7.36534 19.6925 12.0997 19.6598L12.1013 19.6598C16.7595 19.6163 21.0023 16.8643 22.9404 12.6002C22.9793 12.5161 22.9999 12.4239 23 12.33C23 12.2466 22.9838 12.162 22.9496 12.0806C22.9467 12.0737 22.9436 12.0668 22.9404 12.0599C21.0023 7.7958 16.7595 5.04383 12.1013 5.0003L12.0997 5.00029C7.36533 4.96763 3.02543 7.74109 1.05493 12.0588C1.05152 12.0662 1.04826 12.0736 1.04513 12.081C1.01101 12.1623 0.994823 12.2468 0.994873 12.3301C0.994823 12.4133 1.01101 12.4978 1.04513 12.5791Z" fill="currentColor"/>
    <path fill-rule="evenodd" clip-rule="evenodd" d="M12.0026 8.03931C9.8093 8.03931 8.03125 9.81735 8.03125 12.0107C8.03125 14.204 9.8093 15.9821 12.0026 15.9821C14.196 15.9821 15.974 14.204 15.974 12.0107C15.974 9.81735 14.196 8.03931 12.0026 8.03931Z" fill="currentColor"/>
</svg>
