<svg xmlns="http://www.w3.org/2000/svg" viewBox="0 0 24 24" fill="none">
    <path d="M12 23.0108C5.93246 23.0108 1 18.0784 1 12.0108C1 5.94326 5.93246 1.00049 12 1.00049C18.0675 1.00049 23 5.93295 23 12.0005C23 18.068 18.0675 23.0005 12 23.0005V23.0108ZM12 2.30068C6.65478 2.30068 2.30019 6.65527 2.30019 12.0108C2.30019 17.3663 6.65478 21.7209 12.0103 21.7209C17.3659 21.7209 21.7204 17.3663 21.7204 12.0108C21.7204 6.65527 17.3555 2.30068 12 2.30068Z" fill="currentColor"/>
    <path d="M8.48116 16.4893L8.42957 7.57369L10.2767 7.52209L10.3179 16.4377L10.2767 16.4893H8.48116Z" fill="currentColor"/>
    <path d="M9.80194 8.038V15.9733H8.94547V8.038H9.80194ZM10.2663 7.0061H8.48112C8.17155 7.0061 7.91357 7.26408 7.91357 7.57365V16.4376C7.91357 16.7472 8.17155 17.0052 8.48112 17.0052H10.2663C10.5759 17.0052 10.8338 16.7472 10.8338 16.4376V7.57365C10.8338 7.26408 10.5759 7.0061 10.2663 7.0061Z" fill="currentColor"/>
    <path d="M13.7335 16.4893L13.6819 7.57369L15.5187 7.52209L15.5703 16.4377L15.5187 16.4893H13.7335Z" fill="currentColor"/>
    <path d="M15.0543 8.038V15.9733H14.1978V8.038H15.0543ZM15.5187 7.0061H13.7335C13.4239 7.0061 13.166 7.26408 13.166 7.57365V16.4376C13.166 16.7472 13.4239 17.0052 13.7335 17.0052H15.5187C15.8282 17.0052 16.0862 16.7472 16.0862 16.4376V7.57365C16.0862 7.26408 15.8282 7.0061 15.5187 7.0061Z" fill="currentColor"/>
</svg>
