<svg xmlns="http://www.w3.org/2000/svg" viewBox="0 0 24 24" fill="none">
    <path d="M17.4649 7.07709C20.3602 7.07709 22.7178 9.42436 22.7178 12.33C22.7178 15.2356 20.3705 17.5829 17.4649 17.5829C17.4132 17.5829 17.3615 17.5829 17.2891 17.5829C16.6377 17.5829 15.252 17.4692 13.9388 16.5179C13.1116 15.9181 12.7807 14.6256 11.9121 14.6256C10.9711 14.6256 10.6609 16.0525 9.62689 16.7143C8.4274 17.4898 7.23826 17.5829 6.66954 17.5829C6.61784 17.5829 6.57648 17.5829 6.53511 17.5829C6.18354 17.5829 4.32228 17.5519 2.82292 16.0422C1.87161 15.0909 1.28221 13.7777 1.28221 12.33C1.29255 9.42436 3.63981 7.07709 6.54545 7.07709H17.4752M17.4752 5.78455H6.54545C2.93667 5.78455 0 8.72121 0 12.33C0 14.0775 0.682464 15.7216 1.91297 16.9521C3.63981 18.679 5.72857 18.8651 6.53511 18.8651H6.66954C7.57949 18.8651 8.95476 18.679 10.33 17.8001C10.9815 17.3761 11.3951 16.8074 11.726 16.3524C11.7777 16.28 11.8397 16.1973 11.9018 16.1146C11.9535 16.187 12.0155 16.2697 12.0569 16.3317C12.3361 16.7143 12.667 17.19 13.1736 17.5622C14.7454 18.71 16.4308 18.8755 17.2891 18.8755C17.3718 18.8755 17.4442 18.8755 17.4959 18.8755C21.0633 18.8755 24 15.9388 24 12.33C24 8.72121 21.0737 5.78455 17.4649 5.78455H17.4752Z" fill="currentColor"/>
    <path fill-rule="evenodd" clip-rule="evenodd" d="M4.16306 11.121C4.42533 10.8789 4.8342 10.8952 5.0763 11.1575C5.16534 11.254 5.83067 11.9208 6.84033 11.8807L6.84349 11.8806L6.84349 11.8806C7.76748 11.8485 8.34736 11.2686 8.47611 11.1398L8.47705 11.1389C8.72943 10.8865 9.13863 10.8865 9.39102 11.1389C9.6434 11.3913 9.6434 11.8005 9.39102 12.0528C9.38903 12.0548 9.38694 12.0569 9.38475 12.0591C9.2067 12.2374 8.32342 13.1218 6.89 13.1723C5.2948 13.2349 4.28561 12.2066 4.12653 12.0342C3.88444 11.7719 3.90079 11.3631 4.16306 11.121Z" fill="currentColor"/>
    <path fill-rule="evenodd" clip-rule="evenodd" d="M14.7414 11.0692C15.0036 10.8271 15.4125 10.8435 15.6546 11.1057C15.7436 11.2022 16.409 11.869 17.4186 11.829L17.4218 11.8288L17.4218 11.8289C18.3458 11.7967 18.9257 11.2168 19.0544 11.0881L19.0554 11.0871C19.3077 10.8347 19.7169 10.8347 19.9693 11.0871C20.2217 11.3395 20.2217 11.7487 19.9693 12.0011C19.9673 12.0031 19.9653 12.0052 19.9631 12.0074C19.785 12.1856 18.9017 13.0701 17.4683 13.1206C15.8731 13.1832 14.8639 12.1548 14.7048 11.9825C14.4627 11.7202 14.4791 11.3113 14.7414 11.0692Z" fill="currentColor"/>
</svg>
