<svg xmlns="http://www.w3.org/2000/svg" width="24" height="24" viewBox="0 0 24 24" fill="none">
    <g clip-path="url(#clip0_52_11228)">
        <path d="M16.39 9.06C16.06 9.06 15.79 8.81 15.77 8.48C15.75 8.17 15.71 7.87 15.65 7.57C15.58 7.23 15.8 6.9 16.14 6.83C16.48 6.76 16.81 6.98 16.88 7.32C16.95 7.67 17 8.03 17.03 8.39C17.05 8.73 16.79 9.03 16.45 9.06C16.44 9.06 16.42 9.06 16.41 9.06H16.39Z" fill="currentColor"/>
        <path d="M10.51 16.95C10.22 16.95 9.96997 16.75 9.89997 16.46C9.81997 16.12 10.04 15.79 10.37 15.71C10.9 15.59 11.42 15.41 11.91 15.17C12.22 15.02 12.59 15.14 12.75 15.46C12.9 15.77 12.77 16.14 12.46 16.3C11.88 16.58 11.27 16.8 10.64 16.94C10.59 16.95 10.55 16.96 10.5 16.96L10.51 16.95ZM13.69 15.39C13.51 15.39 13.33 15.31 13.21 15.16C12.99 14.89 13.03 14.5 13.29 14.28C13.71 13.93 14.09 13.53 14.42 13.09C14.63 12.81 15.02 12.76 15.29 12.96C15.57 13.17 15.62 13.56 15.42 13.83C15.03 14.35 14.59 14.82 14.09 15.23C13.97 15.33 13.83 15.37 13.69 15.37V15.39ZM15.81 12.55C15.73 12.55 15.64 12.53 15.56 12.5C15.24 12.36 15.1 12 15.23 11.68C15.44 11.18 15.6 10.65 15.69 10.11C15.75 9.76997 16.07 9.53997 16.41 9.59997C16.75 9.65997 16.98 9.97997 16.92 10.32C16.81 10.96 16.63 11.58 16.38 12.17C16.28 12.41 16.05 12.55 15.8 12.55H15.81Z" fill="currentColor"/>
        <path d="M8.71998 17.13H8.70998C8.34998 17.13 7.97998 17.09 7.62998 17.04C7.28998 16.99 7.04998 16.67 7.10998 16.33C7.15998 15.99 7.47998 15.76 7.81998 15.81C8.11998 15.86 8.41998 15.88 8.72998 15.89C9.07998 15.89 9.34998 16.18 9.33998 16.53C9.33998 16.87 9.04998 17.14 8.71998 17.14V17.13Z" fill="currentColor"/>
        <path d="M7.62995 17.04C3.67995 16.44 0.699951 12.97 0.699951 8.97005C0.699951 4.46005 4.35995 0.800049 8.86995 0.800049C12.73 0.800049 16.1 3.54005 16.87 7.32005L15.65 7.57005C15 4.37005 12.15 2.05005 8.87995 2.05005C5.04995 2.05005 1.94995 5.15005 1.94995 8.97005C1.94995 12.36 4.46995 15.3 7.81995 15.81L7.62995 17.05V17.04Z" fill="currentColor"/>
        <path d="M7.70993 17.1001C7.41993 17.1001 7.15993 16.9001 7.09993 16.6001C7.02993 16.2501 6.97993 15.8901 6.94993 15.5301C6.92993 15.1901 7.18993 14.8901 7.52993 14.8601C7.86993 14.8301 8.16993 15.1001 8.19993 15.4401C8.21993 15.7501 8.25993 16.0501 8.31993 16.3501C8.38993 16.6901 8.16993 17.0201 7.82993 17.0901C7.78993 17.0901 7.74993 17.1001 7.69993 17.1001H7.70993Z" fill="currentColor"/>
        <path d="M7.65993 14.3201C7.65993 14.3201 7.58993 14.3201 7.55993 14.3201C7.21993 14.2601 6.98993 13.9401 7.04993 13.6001C7.15993 12.9701 7.33993 12.3401 7.58993 11.7501C7.72993 11.4301 8.08993 11.2801 8.40993 11.4201C8.72993 11.5601 8.87993 11.9201 8.73993 12.2401C8.52993 12.7401 8.36993 13.2701 8.27992 13.8101C8.22993 14.1201 7.95993 14.3301 7.65993 14.3301V14.3201ZM9.04993 11.0601C8.91993 11.0601 8.78993 11.0201 8.67993 10.9401C8.39993 10.7301 8.34993 10.3401 8.54992 10.0701C8.93992 9.5501 9.37993 9.0801 9.87993 8.6701C10.1499 8.4501 10.5399 8.4901 10.7599 8.7501C10.9799 9.0201 10.9399 9.4101 10.6799 9.6301C10.2599 9.9801 9.87993 10.3801 9.54993 10.8201C9.42993 10.9801 9.23993 11.0701 9.04993 11.0701V11.0601ZM11.7799 8.8001C11.5499 8.8001 11.3299 8.6701 11.2199 8.4501C11.0699 8.1401 11.1999 7.7701 11.5099 7.6101C12.0899 7.3301 12.6999 7.1101 13.3299 6.9701C13.6699 6.9001 13.9999 7.1101 14.0799 7.4501C14.1499 7.7901 13.9399 8.1201 13.5999 8.2001C13.0699 8.3201 12.5499 8.5001 12.0599 8.7401C11.9699 8.7801 11.8799 8.8001 11.7899 8.8001H11.7799Z" fill="currentColor"/>
        <path d="M16.2499 8.13007C16.2499 8.13007 16.1899 8.13007 16.1499 8.13007C15.8499 8.08007 15.5499 8.06007 15.2399 8.05007C14.8899 8.05007 14.6199 7.76007 14.6299 7.41007C14.6399 7.06007 14.9199 6.79007 15.2699 6.80007C15.6299 6.80007 15.9899 6.84007 16.3499 6.89007C16.6899 6.94007 16.9299 7.26007 16.8699 7.60007C16.8199 7.91007 16.5599 8.13007 16.2499 8.13007Z" fill="currentColor"/>
        <path d="M15.1 23.12C11.24 23.12 7.86998 20.38 7.09998 16.6L8.31998 16.35C8.96998 19.55 11.82 21.87 15.09 21.87C18.9 21.87 22.01 18.77 22.01 14.95C22.01 11.57 19.49 8.62999 16.15 8.10999L16.34 6.87C20.28 7.47 23.26 10.94 23.26 14.94C23.26 19.44 19.6 23.11 15.09 23.11L15.1 23.12Z" fill="currentColor"/>
    </g>
    <defs>
        <clipPath id="clip0_52_11228">
            <rect width="22.56" height="22.32" fill="white" transform="translate(0.699951 0.800049)"/>
        </clipPath>
    </defs>
</svg>