<svg width="16" height="16" viewBox="0 0 24 24" fill="none" xmlns="http://www.w3.org/2000/svg">
    <path fill-rule="evenodd" clip-rule="evenodd" d="M0.699951 8.97005C0.699951 12.8172 3.45662 16.1742 7.18162 16.9589C8.08569 20.5522 11.3632 23.12 15.1 23.12L15.09 23.11C19.6 23.11 23.26 19.44 23.26 14.94C23.26 11.0923 20.5026 7.73499 16.7857 6.95088C15.878 3.36295 12.6031 0.800049 8.86995 0.800049C4.35995 0.800049 0.699951 4.46005 0.699951 8.97005ZM17.0225 8.30538C17.0251 8.33358 17.0276 8.36179 17.03 8.39001C17.05 8.73 16.79 9.03 16.45 9.06001H16.41H16.39C16.06 9.06001 15.79 8.81 15.77 8.48C15.7612 8.3443 15.7486 8.21052 15.7322 8.07781C15.5699 8.06358 15.4064 8.05532 15.2399 8.04995C14.8899 8.04995 14.6199 7.75995 14.6299 7.40995C14.6399 7.05995 14.9199 6.78995 15.2699 6.79995C15.329 6.79995 15.3881 6.80103 15.4472 6.80305C14.5308 4.00594 11.8824 2.05005 8.87995 2.05005C5.04995 2.05005 1.94995 5.15005 1.94995 8.97005C1.94995 12.0624 4.04688 14.7803 6.95794 15.6209C6.95513 15.5906 6.95246 15.5603 6.94993 15.5299C6.92993 15.1899 7.18993 14.8899 7.52993 14.8599C7.86993 14.8299 8.16993 15.0999 8.19993 15.4399C8.20913 15.5826 8.22257 15.7231 8.24024 15.8624C8.40163 15.8765 8.56435 15.8847 8.72992 15.89C9.07992 15.89 9.34992 16.18 9.33992 16.53C9.33992 16.87 9.04992 17.14 8.71992 17.14V17.13H8.70992C8.64883 17.13 8.58745 17.1289 8.52593 17.1267C9.44531 19.9186 12.091 21.87 15.09 21.87C18.9 21.87 22.01 18.77 22.01 14.95C22.01 11.8713 19.9193 9.15771 17.0225 8.30538ZM9.8999 16.46C9.9699 16.75 10.2199 16.95 10.5099 16.95L10.4999 16.96C10.5426 16.96 10.578 16.9527 10.6186 16.9443L10.6399 16.94C11.2699 16.8 11.8799 16.58 12.4599 16.3C12.7699 16.14 12.8999 15.77 12.7499 15.46C12.5899 15.14 12.2199 15.02 11.9099 15.17C11.4199 15.41 10.8999 15.59 10.3699 15.71C10.0399 15.79 9.8199 16.12 9.8999 16.46ZM13.2099 15.16C13.3299 15.31 13.5099 15.39 13.6899 15.39V15.37C13.8299 15.37 13.9699 15.33 14.0899 15.23C14.5899 14.82 15.0299 14.35 15.4199 13.83C15.6199 13.56 15.5699 13.17 15.2899 12.96C15.0199 12.76 14.6299 12.81 14.4199 13.09C14.0899 13.53 13.7099 13.93 13.2899 14.28C13.0299 14.5 12.9899 14.89 13.2099 15.16ZM15.8053 12.55L15.8099 12.55H15.7999L15.8053 12.55ZM16.3799 12.17C16.2806 12.4082 16.0532 12.5479 15.8053 12.55C15.7265 12.5492 15.6384 12.5294 15.5599 12.5C15.2399 12.36 15.0999 12 15.2299 11.68C15.4399 11.18 15.5999 10.65 15.6899 10.11C15.7499 9.76997 16.0699 9.53997 16.4099 9.59997C16.7499 9.65997 16.9799 9.97997 16.9199 10.32C16.8099 10.96 16.6299 11.58 16.3799 12.17ZM7.55993 14.32H7.65993V14.33C7.95993 14.33 8.22993 14.12 8.27992 13.81C8.36993 13.27 8.52993 12.74 8.73993 12.24C8.87992 11.92 8.72993 11.56 8.40992 11.42C8.08993 11.28 7.72993 11.43 7.58992 11.75C7.33993 12.34 7.15992 12.97 7.04993 13.6C6.98993 13.94 7.21993 14.26 7.55993 14.32ZM8.67992 10.94C8.78992 11.02 8.91993 11.06 9.04992 11.06V11.07C9.23993 11.07 9.42993 10.98 9.54992 10.82C9.87993 10.38 10.2599 9.97998 10.6799 9.62998C10.9399 9.40998 10.9799 9.01998 10.7599 8.74998C10.5399 8.48998 10.1499 8.44998 9.87992 8.66998C9.37992 9.07998 8.93993 9.54998 8.54992 10.07C8.34993 10.34 8.39993 10.73 8.67992 10.94ZM11.2199 8.44998C11.3299 8.66998 11.5499 8.79998 11.7799 8.79998H11.7899C11.8799 8.79998 11.9699 8.77998 12.0599 8.73998C12.5499 8.49998 13.0699 8.31998 13.5999 8.19998C13.9399 8.11998 14.1499 7.78998 14.0799 7.44998C13.9999 7.10998 13.6699 6.89998 13.3299 6.96998C12.6999 7.10998 12.0899 7.32998 11.5099 7.60998C11.1999 7.76998 11.0699 8.13998 11.2199 8.44998Z" fill="currentColor"/>
</svg>
