<svg viewBox="0 0 24 24" fill="none" xmlns="http://www.w3.org/2000/svg">
    <g clip-path="url(#clip0_52_11171)">
        <path fill-rule="evenodd" clip-rule="evenodd" d="M2.08234 1.90869C1.16116 1.90869 0.402661 2.63138 0.401461 3.55943C0.377475 5.56634 0.643314 8.60328 2.0007 11.752C3.97846 16.3108 8.00103 20.309 12.5211 22.3012C15.6838 23.6898 18.7579 24.0001 20.7892 24.0001C21.707 24.0001 22.482 23.2802 22.482 22.3471V18.1386C22.482 17.5094 21.9542 17.0455 21.3632 16.938C21.0399 16.8791 20.4683 16.7777 19.8245 16.6635C18.6539 16.4559 17.2444 16.2058 16.6543 16.0922L16.65 16.0914C16.2272 16.0155 15.7223 15.9986 15.2761 16.2977L15.2739 16.2992C14.3003 16.9625 13.3231 17.6178 12.3456 18.2825C11.7715 17.9585 11.1665 17.5757 10.5222 17.1167C9.19693 16.1286 8.1143 15.002 7.19245 13.7803C6.73435 13.1631 6.36837 12.5532 6.05109 11.98C6.73429 11.0285 7.41765 10.0758 8.09058 9.123L8.09317 9.11928C8.37661 8.70664 8.45372 8.21506 8.31071 7.73194C8.15421 6.96355 7.65009 3.96335 7.53247 3.10411C7.45702 2.52675 7.0311 1.96887 6.34515 1.96747L2.08714 1.90872L2.08234 1.90869Z" fill="currentColor"/>
        <path fill-rule="evenodd" clip-rule="evenodd" d="M20.1406 0.215008C19.8749 -0.0628563 19.4342 -0.0726931 19.1563 0.193036C18.8785 0.458766 18.8686 0.899435 19.1344 1.1773L21.1917 3.32855H18.0353C15.2192 3.32855 12.9791 5.70775 12.9791 8.58386C12.9791 11.4511 15.2107 13.8392 18.0353 13.8392H19.7297C20.1141 13.8392 20.4258 13.5275 20.4258 13.143C20.4258 12.7585 20.1141 12.4469 19.7297 12.4469H18.0353C16.039 12.4469 14.3714 10.7429 14.3714 8.58386C14.3714 6.41896 16.0447 4.72086 18.0353 4.72086H21.1917L19.1344 6.87212C18.8686 7.14999 18.8785 7.59065 19.1563 7.85638C19.4342 8.12211 19.8749 8.11228 20.1406 7.83441L23.3238 4.50586C23.5811 4.23672 23.5811 3.8127 23.3238 3.54356L20.1406 0.215008Z" fill="currentColor"/>
    </g>
    <defs>
        <clipPath id="clip0_52_11171">
            <rect width="24" height="24" fill="white"/>
        </clipPath>
    </defs>
</svg>
