<svg xmlns="http://www.w3.org/2000/svg" viewBox="0 0 24 24" fill="none">
    <g clip-path="url(#clip0_52_11171)">
        <path fill-rule="evenodd" clip-rule="evenodd" d="M2.08234 1.90869C1.16116 1.90869 0.402661 2.63138 0.401461 3.55943C0.377475 5.56634 0.643314 8.60328 2.0007 11.752L2.00102 11.7528C2.62519 13.1915 3.66355 14.6939 4.53285 15.8261C4.9694 16.3946 5.36709 16.8747 5.65493 17.2126C5.79891 17.3817 5.91545 17.5152 5.99556 17.6064L6.08643 17.7097L6.10355 17.7293C6.10958 17.7371 6.11596 17.7446 6.12269 17.7519C7.27496 18.998 9.37115 20.9129 12.5211 22.3012L12.5215 22.3014C15.6842 23.69 18.7579 24.0001 20.7892 24.0001C21.707 24.0001 22.482 23.2802 22.482 22.3471V18.1386C22.482 17.4889 21.9846 17.0954 21.4571 16.9693C21.428 16.9547 21.3965 16.944 21.3632 16.938C21.0399 16.8791 20.4683 16.7777 19.8245 16.6635L19.8244 16.6635C18.6538 16.4558 17.2444 16.2058 16.6543 16.0922L16.6543 16.0922L16.65 16.0914C16.2272 16.0155 15.7223 15.9986 15.2761 16.2977L15.2761 16.2977L15.2739 16.2992C14.7569 16.6514 14.2398 17.0008 13.7221 17.3506L13.7212 17.3512C13.263 17.6607 12.8044 17.9705 12.3456 18.2825C11.7715 17.9585 11.1665 17.5757 10.5222 17.1167C9.19693 16.1286 8.1143 15.002 7.19245 13.7803C6.73435 13.1631 6.36837 12.5532 6.05109 11.98C6.73429 11.0285 7.41765 10.0758 8.09058 9.123L8.0906 9.12301L8.09317 9.11928C8.37661 8.70664 8.45372 8.21506 8.31071 7.73194C8.15421 6.96355 7.65009 3.96335 7.53247 3.10411C7.45702 2.52675 7.0311 1.96887 6.34515 1.96747L2.08714 1.90872L2.08714 1.90869H2.08234Z" fill="currentColor"/>
        <path fill-rule="evenodd" clip-rule="evenodd" d="M20.1407 0.215008C19.875 -0.0628563 19.4343 -0.0726931 19.1565 0.193036C18.8786 0.458766 18.8688 0.899436 19.1345 1.1773L21.1918 3.32855H18.0354C15.2193 3.32855 12.9792 5.70775 12.9792 8.58387C12.9792 11.4511 15.2108 13.8392 18.0354 13.8392H19.7298C20.1143 13.8392 20.426 13.5275 20.426 13.143C20.426 12.7586 20.1143 12.4469 19.7298 12.4469H18.0354C16.0391 12.4469 14.3715 10.7429 14.3715 8.58387C14.3715 6.41896 16.0448 4.72086 18.0354 4.72086H21.1918L19.1345 6.87213C18.8688 7.14999 18.8786 7.59066 19.1565 7.85639C19.4343 8.12212 19.875 8.11228 20.1407 7.83442L23.3239 4.50586C23.5813 4.23672 23.5813 3.8127 23.3239 3.54357L20.1407 0.215008Z" fill="currentColor"/>
    </g>
    <defs>
        <clipPath id="clip0_52_11171">
            <rect width="24" height="24" fill="white"/>
        </clipPath>
    </defs>
</svg>
