<svg xmlns="http://www.w3.org/2000/svg" viewBox="0 0 24 24" fill="none">
    <path d="M12.24 0H12.5792C14.7948 0 16.5969 1.80212 16.5969 4.01768V12.3922C16.5969 14.6078 14.7948 16.4099 12.5792 16.4099H12.24C10.0245 16.4099 8.22235 14.6078 8.22235 12.3922V4.01768C8.22235 1.80212 10.0245 0 12.24 0Z" fill="currentColor"/>
    <path d="M17.551 18.1696C19.1517 16.6007 20.0103 14.417 19.9149 12.1802C19.8937 11.8198 19.5863 11.523 19.2259 11.5442C18.8655 11.5654 18.5792 11.8728 18.5898 12.2332C18.6746 14.0884 17.9538 15.9011 16.6287 17.2156C15.3672 18.4559 13.6923 19.0919 12.0492 18.9965C8.77357 18.7845 6.15519 15.6891 6.3354 12.2438C6.3566 11.8834 6.07038 11.5654 5.70996 11.5442C5.33893 11.523 5.03151 11.8092 5.01031 12.1696C4.7983 16.2615 7.88311 19.94 11.7842 20.2898V22.6856H9.3248C8.95378 22.6856 8.66756 22.9824 8.66756 23.3428C8.66756 23.7032 8.96438 24 9.3248 24H15.5898C15.9609 24 16.2471 23.7032 16.2471 23.3428C16.2471 22.9824 15.9503 22.6856 15.5898 22.6856H13.1093V20.2898C14.7418 20.1202 16.3107 19.3781 17.551 18.159V18.1696Z" fill="currentColor"/>
</svg>
