<svg xmlns="http://www.w3.org/2000/svg" viewBox="0 0 24 24" fill="none">
    <path d="M12.0052 1C5.94046 1 1 5.94046 1 12.0052C1 18.0699 5.94046 23 12.0052 23C18.0699 23 23 18.0699 23 12.0052C23 5.94046 18.0699 1 12.0052 1ZM12.0052 21.7004C6.65213 21.7004 2.29958 17.3479 2.29958 12.0052C2.29958 6.66245 6.65213 2.29958 12.0052 2.29958C17.3582 2.29958 21.7004 6.65213 21.7004 12.0052C21.7004 17.3582 17.3479 21.7004 12.0052 21.7004Z" fill="currentColor"/>
    <path d="M12.0051 2.29956C6.65211 2.29956 2.29956 6.65212 2.29956 12.0051C2.29956 17.3582 6.65211 21.7004 12.0051 21.7004C17.3582 21.7004 21.7004 17.3478 21.7004 12.0051C21.7004 6.66243 17.3478 2.29956 12.0051 2.29956ZM10.8396 16.4299C10.8396 16.7496 10.5818 16.9972 10.2724 16.9972H8.48803C8.16829 16.9972 7.92075 16.7496 7.92075 16.4299V7.57007C7.92075 7.26065 8.16829 7.0028 8.48803 7.0028H10.2724C10.5818 7.0028 10.8396 7.26065 10.8396 7.57007V16.4299ZM16.0895 16.4299C16.0895 16.7496 15.8317 16.9972 15.5223 16.9972H13.7276C13.4182 16.9972 13.1706 16.7496 13.1706 16.4299V7.57007C13.1706 7.26065 13.4182 7.0028 13.7276 7.0028H15.5223C15.8317 7.0028 16.0895 7.26065 16.0895 7.57007V16.4299Z" fill="currentColor"/>
</svg>
