<svg xmlns="http://www.w3.org/2000/svg" width="24" height="24" viewBox="0 0 24 24" fill="none">
    <path d="M12.04 23.4247C11.52 23.4247 10.99 23.4247 10.47 23.4147C9.04998 23.4047 7.85998 22.2447 7.81998 20.8347C7.81998 20.5347 7.81998 20.2347 7.81998 19.9347V19.4947C7.81998 19.4047 7.79998 19.3547 7.78998 19.3347C7.77998 19.3447 7.71999 19.3547 7.62998 19.4047L6.63998 19.9747C5.31998 20.7147 3.62998 20.2547 2.87998 18.9547L2.45998 18.2347C2.11998 17.6447 1.76998 17.0447 1.42998 16.4447C0.679985 15.1447 1.12998 13.4647 2.41998 12.6947C2.58998 12.5847 2.77998 12.4747 2.96998 12.3647L3.30998 12.1647C3.40998 12.1047 3.44998 12.0447 3.44998 12.0347C3.44998 12.0347 3.40998 11.9647 3.27998 11.8947L2.82998 11.6347C2.66998 11.5447 2.51998 11.4547 2.35998 11.3647C1.06998 10.6047 0.609985 8.94474 1.34998 7.64474C1.85998 6.75474 2.36998 5.86474 2.88998 4.98474C3.62998 3.73474 5.26998 3.30474 6.53998 4.01474C6.73998 4.12474 6.92998 4.24474 7.11998 4.35474L7.53998 4.60474C7.62998 4.65474 7.69998 4.67474 7.72998 4.67474C7.72998 4.66474 7.74998 4.61474 7.74998 4.50474V4.06474C7.74998 3.61474 7.74998 3.15474 7.82998 2.68474C8.04998 1.52474 9.09999 0.664739 10.34 0.634739H10.57C11.94 0.604739 13.42 0.574739 13.95 0.634739C15.18 0.794739 16.13 1.89474 16.18 3.19474C16.18 3.43474 16.18 3.65474 16.18 3.88474C16.18 4.11474 16.18 4.32474 16.18 4.54474C16.18 4.64474 16.19 4.68474 16.2 4.70474C16.21 4.70474 16.27 4.68474 16.36 4.63474C16.52 4.54474 16.69 4.44474 16.85 4.35474C17.02 4.25474 17.19 4.15474 17.36 4.05474C18.66 3.31474 20.34 3.77474 21.1 5.07474L22.57 7.61474C23.32 8.93474 22.86 10.6247 21.55 11.3847L20.6 11.9447C20.6 11.9447 20.55 11.9947 20.55 12.0347C20.55 12.0647 20.55 12.1147 20.61 12.1347L21.04 12.3747C21.24 12.4847 21.43 12.5947 21.62 12.7047C22.88 13.4547 23.33 15.1047 22.6 16.3947C22.1 17.2947 21.58 18.1747 21.06 19.0547C20.34 20.2647 18.75 20.7247 17.53 20.0647C17.27 19.9347 17.02 19.7847 16.77 19.6347L16.41 19.4247C16.29 19.3547 16.22 19.3447 16.2 19.3547C16.2 19.3547 16.17 19.4247 16.17 19.5447V19.8847C16.18 20.3647 16.19 20.8547 16.09 21.3647C15.87 22.5147 14.81 23.3547 13.58 23.3647C13.06 23.3647 12.54 23.3747 12.02 23.3747L12.04 23.4247ZM7.81998 18.0947C8.03998 18.0947 8.24998 18.1447 8.42998 18.2547C8.82998 18.4847 9.05999 18.9347 9.05999 19.4847V19.9347C9.05999 20.2247 9.05999 20.5047 9.05999 20.7947C9.07999 21.5347 9.71998 22.1447 10.48 22.1547C11.52 22.1747 12.55 22.1747 13.57 22.1547C14.2 22.1547 14.76 21.7247 14.87 21.1647C14.94 20.7847 14.94 20.3747 14.93 19.9447V19.5747C14.93 18.9947 15.18 18.5347 15.6 18.2947C16.02 18.0547 16.54 18.0847 17.04 18.3747L17.41 18.5847C17.65 18.7247 17.88 18.8547 18.13 18.9847C18.78 19.3347 19.62 19.0847 20 18.4347C20.52 17.5647 21.03 16.6947 21.52 15.8047C21.91 15.1047 21.67 14.2047 20.99 13.7947C20.81 13.6847 20.63 13.5847 20.44 13.4747C20.29 13.3947 20.14 13.3047 19.98 13.2147C19.56 12.9547 19.31 12.5147 19.31 12.0247C19.31 11.5447 19.56 11.1047 19.98 10.8647L20.94 10.3047C21.67 9.88474 21.92 8.95474 21.5 8.23474L20.03 5.69474C19.62 4.98474 18.7 4.73474 17.99 5.13474C17.82 5.22474 17.66 5.32474 17.49 5.42474C17.32 5.52474 17.15 5.62474 16.98 5.72474C16.49 5.99474 15.97 6.01474 15.57 5.77474C15.17 5.53474 14.94 5.09474 14.94 4.54474C14.94 4.32474 14.94 4.10474 14.94 3.87474C14.94 3.64474 14.94 3.43474 14.94 3.21474C14.92 2.54474 14.42 1.93474 13.82 1.86474C13.31 1.80474 11.28 1.85474 10.61 1.86474H10.38C9.72999 1.88474 9.18998 2.31474 9.07998 2.89474C9.01998 3.25474 9.01999 3.63474 9.01999 4.04474C9.01999 4.20474 9.01999 4.35474 9.01999 4.51474C9.01999 5.06474 8.76998 5.52474 8.36998 5.75474C7.95998 5.98474 7.43998 5.96474 6.94998 5.67474C6.79998 5.59474 6.64998 5.50474 6.50998 5.41474C6.32999 5.30474 6.14998 5.19474 5.95998 5.09474C5.26998 4.70474 4.38998 4.93474 3.98998 5.60474C3.46998 6.48474 2.95998 7.36474 2.44998 8.24474C2.04998 8.94474 2.29998 9.85474 3.00998 10.2647L3.45998 10.5247C3.61998 10.6147 3.76998 10.7047 3.92998 10.7947C4.41998 11.0747 4.69998 11.5247 4.70998 12.0047C4.70998 12.4847 4.43998 12.9247 3.95998 13.2147L3.60998 13.4247C3.42998 13.5347 3.24998 13.6347 3.06998 13.7447C2.34998 14.1747 2.09998 15.0947 2.50998 15.8047C2.84998 16.4047 3.19998 16.9947 3.53998 17.5847L3.95998 18.3147C4.36998 19.0247 5.29998 19.2747 6.01998 18.8747L7.00998 18.2947C7.27998 18.1447 7.54998 18.0747 7.80998 18.0747L7.81998 18.0947Z" fill="currentColor"/>
    <path d="M11.98 17.1348C9.14998 17.1348 6.85999 14.8348 6.85999 12.0148C6.85999 9.19478 9.15998 6.89478 11.98 6.89478C14.8 6.89478 17.1 9.19478 17.1 12.0148C17.1 14.8348 14.8 17.1348 11.98 17.1348ZM11.98 8.13478C9.83998 8.13478 8.09999 9.87478 8.09999 12.0148C8.09999 14.1548 9.83998 15.8948 11.98 15.8948C14.12 15.8948 15.86 14.1548 15.86 12.0148C15.86 9.87478 14.12 8.13478 11.98 8.13478Z" fill="currentColor"/>
    <path d="M11.9 14.7047C13.3912 14.7047 14.6 13.4959 14.6 12.0047C14.6 10.5135 13.3912 9.30469 11.9 9.30469C10.4088 9.30469 9.20001 10.5135 9.20001 12.0047C9.20001 13.4959 10.4088 14.7047 11.9 14.7047Z" fill="currentColor"/>
</svg>