<svg viewBox="0 0 24 24" fill="none" xmlns="http://www.w3.org/2000/svg">
    <g clip-path="url(#clip0_52_11425)">
        <path d="M12.2743 21.4141C12.0711 21.4141 11.8679 21.3535 11.685 21.2323L5.92379 17.4545C5.74089 17.3333 5.63928 17.1414 5.63928 16.9293V7.91916C5.63928 7.70704 5.75105 7.50502 5.92379 7.39391L11.685 3.61613C12.0203 3.39391 12.4267 3.37371 12.7722 3.56563C13.1888 3.78785 13.453 4.2626 13.453 4.80805V20.0505C13.453 20.5959 13.1888 21.0707 12.7722 21.2929C12.6096 21.3737 12.4471 21.4242 12.2743 21.4242V21.4141ZM6.90939 16.5858L12.1829 20.0505V4.80805L6.90939 8.2626V16.5858Z" fill="currentColor"/>
        <path d="M3.72904 7.70703H1.22947C0.548688 7.70703 0 8.25249 0 8.92925V15.9293C0 16.606 0.548688 17.1515 1.22947 17.1515H3.72904C4.07451 17.1515 4.35902 16.8686 4.35902 16.5252V8.34339C4.35902 7.98986 4.07451 7.71713 3.72904 7.71713V7.70703Z" fill="currentColor"/>
        <path d="M15.6274 16.1919C15.4852 16.1919 15.3429 16.1515 15.2312 16.0505C14.9568 15.8283 14.9162 15.4344 15.1296 15.1616C15.3633 14.8687 16.5013 13.3435 16.044 11.5455C15.8916 10.9596 15.597 10.4142 15.16 9.93942C14.9263 9.68689 14.9365 9.28285 15.2007 9.05053C15.4547 8.81821 15.8611 8.82831 16.0948 9.09094C16.6638 9.7172 17.0804 10.4546 17.2735 11.2425C17.8832 13.6162 16.42 15.5859 16.1152 15.9596C15.9932 16.1111 15.8103 16.1919 15.6173 16.1919H15.6274Z" fill="currentColor"/>
        <path d="M18.1778 18.4242C18.0356 18.4242 17.9035 18.3838 17.7815 18.2929C17.5072 18.0808 17.4564 17.6767 17.6799 17.404C18.2997 16.6161 19.3463 14.9595 19.326 12.6363C19.3158 10.3434 18.2896 8.71712 17.6799 7.93934C17.4665 7.66662 17.5072 7.27268 17.7815 7.05046C18.0559 6.83833 18.4522 6.87874 18.6757 7.15147C19.387 8.05046 20.5859 9.95955 20.5961 12.6262C20.6063 15.3333 19.3971 17.2727 18.6757 18.1818C18.5538 18.3434 18.3607 18.4242 18.1778 18.4242Z" fill="currentColor"/>
        <path d="M20.7384 20.7071C20.5961 20.7071 20.464 20.6667 20.3421 20.5758C20.0677 20.3637 20.0169 19.9596 20.2405 19.6869C21.1753 18.5051 22.7502 15.9899 22.7299 12.4849C22.7096 9.03033 21.1651 6.56568 20.2405 5.40407C20.0271 5.13134 20.0677 4.7374 20.3421 4.51518C20.6164 4.30306 21.0127 4.34346 21.2362 4.61619C22.2625 5.90912 23.9797 8.64649 24 12.4748C24.0203 16.3637 22.2726 19.1515 21.2362 20.4647C21.1143 20.6263 20.9213 20.7071 20.7384 20.7071Z" fill="currentColor"/>
        <path d="M0.843353 24C0.680779 24 0.518205 23.9394 0.396275 23.8081C0.152414 23.5657 0.152414 23.1616 0.396275 22.9192L22.4352 1.18182C22.6892 0.939394 23.0855 0.939394 23.3294 1.18182C23.5732 1.42424 23.5732 1.82828 23.3294 2.07071L1.29043 23.8182C1.1685 23.9394 1.00593 24 0.843353 24Z" fill="currentColor"/>
    </g>
    <defs>
        <clipPath id="clip0_52_11425">
            <rect width="24" height="23" fill="white" transform="translate(0 1)"/>
        </clipPath>
    </defs>
</svg>
