<svg viewBox="0 0 24 18" fill="none" xmlns="http://www.w3.org/2000/svg">
    <path fill-rule="evenodd" clip-rule="evenodd" d="M12.9261 0.128777C12.5738 -0.0594456 12.161 -0.0396328 11.8288 0.178309L5.99995 3.96257C5.81875 4.08145 5.70801 4.27958 5.70801 4.48761V13.5124C5.70801 13.7204 5.81875 13.9185 5.99995 14.0374L11.8288 17.8217C12.01 17.9406 12.2214 18 12.4228 18C12.5939 18 12.7651 17.9604 12.9261 17.8712C13.3489 17.6434 13.6107 17.1679 13.6107 16.6329V1.36708C13.6107 0.822227 13.3489 0.346718 12.9261 0.128777ZM3.7651 4.27956H1.23826C0.553691 4.27956 0 4.82441 0 5.49805V12.5019C0 13.1755 0.553691 13.7204 1.23826 13.7204H3.7651C4.11745 13.7204 4.4094 13.4331 4.4094 13.0864V4.90367C4.4094 4.55694 4.11745 4.26965 3.7651 4.26965V4.27956ZM15.4127 12.6406C15.5336 12.7297 15.6745 12.7793 15.8154 12.7793C16.0067 12.7793 16.1879 12.7 16.3188 12.5415C16.6208 12.1651 18.1007 10.1937 17.4866 7.81613C17.2852 7.02361 16.8825 6.30044 16.2886 5.66643C16.047 5.40886 15.6443 5.38905 15.3825 5.62681C15.1208 5.86456 15.1007 6.26082 15.3423 6.51839C15.7852 7.0038 16.0872 7.53875 16.2382 8.13314C16.7013 9.9262 15.5436 11.4617 15.3121 11.749C15.0906 12.0264 15.1409 12.4226 15.4127 12.6406ZM18.3825 15.0083C18.2416 15.0083 18.1006 14.9687 17.9899 14.8696C17.708 14.6516 17.6678 14.2554 17.8792 13.978C18.5134 13.1954 19.5604 11.5311 19.5503 9.2031C19.5402 6.91472 18.4933 5.27025 17.8792 4.49755C17.6577 4.22017 17.708 3.82391 17.9899 3.60597C18.2718 3.38802 18.6745 3.43756 18.8959 3.71494C19.6208 4.61642 20.8288 6.52837 20.8389 9.1932C20.849 11.9076 19.6208 13.8492 18.8959 14.7606C18.7651 14.9191 18.5839 14.9984 18.3926 14.9984L18.3825 15.0083ZM20.5872 16.3456C20.6979 16.4447 20.8389 16.4843 20.9798 16.4843L20.9899 16.4744C21.1812 16.4744 21.3624 16.3952 21.4932 16.2367C22.4295 15.0578 24.0201 12.5515 23.9999 9.05449C23.9899 5.60705 22.4194 3.14035 21.4932 1.98129C21.2718 1.70391 20.8691 1.65438 20.5872 1.87232C20.3053 2.09027 20.255 2.48652 20.4765 2.7639C21.302 3.79417 22.7013 5.9934 22.7114 9.05449C22.7315 12.175 21.3221 14.404 20.4765 15.4541C20.265 15.7314 20.3053 16.1277 20.5872 16.3456Z" fill="currentColor"/>
</svg>
