<svg viewBox="0 0 24 24" fill="none" xmlns="http://www.w3.org/2000/svg">
    <g clip-path="url(#clip0_52_11413)">
        <path d="M12.9262 3.12878C12.5738 2.94055 12.1611 2.96037 11.8289 3.17831L6.00002 6.96257C5.81881 7.08145 5.70807 7.27958 5.70807 7.48761V16.5124C5.70807 16.7204 5.81881 16.9185 6.00002 17.0374L11.8289 20.8217C12.0101 20.9406 12.2215 21 12.4228 21C12.594 21 12.7651 20.9604 12.9262 20.8712C13.349 20.6434 13.6108 20.1679 13.6108 19.6329V4.36708C13.6108 3.82223 13.349 3.34672 12.9262 3.12878Z" fill="currentColor"/>
        <path d="M3.7651 7.27956H1.23826C0.553691 7.27956 0 7.82441 0 8.49805V15.5019C0 16.1755 0.553691 16.7204 1.23826 16.7204H3.7651C4.11745 16.7204 4.4094 16.4331 4.4094 16.0864V7.90367C4.4094 7.55694 4.11745 7.26965 3.7651 7.26965V7.27956Z" fill="currentColor"/>
        <path d="M15.8154 15.7793C15.6745 15.7793 15.5336 15.7297 15.4127 15.6406C15.1409 15.4226 15.0906 15.0264 15.3121 14.749C15.5436 14.4617 16.7013 12.9262 16.2382 11.1331C16.0872 10.5387 15.7852 10.0038 15.3423 9.51839C15.1007 9.26082 15.1208 8.86456 15.3825 8.62681C15.6443 8.38905 16.047 8.40886 16.2886 8.66643C16.8825 9.30044 17.2852 10.0236 17.4866 10.8161C18.1007 13.1937 16.6208 15.1651 16.3188 15.5415C16.1879 15.7 16.0067 15.7793 15.8154 15.7793Z" fill="currentColor"/>
        <path d="M18.3825 18.0083C18.2416 18.0083 18.1006 17.9687 17.9899 17.8696C17.708 17.6516 17.6678 17.2554 17.8792 16.978C18.5134 16.1954 19.5604 14.5311 19.5503 12.2031C19.5402 9.91472 18.4933 8.27025 17.8792 7.49755C17.6577 7.22017 17.708 6.82391 17.9899 6.60597C18.2718 6.38802 18.6745 6.43756 18.8959 6.71494C19.6208 7.61642 20.8288 9.52837 20.8389 12.1932C20.849 14.9076 19.6208 16.8492 18.8959 17.7606C18.7651 17.9191 18.5839 17.9984 18.3926 17.9984L18.3825 18.0083Z" fill="currentColor"/>
        <path d="M20.9799 19.4843C20.8389 19.4843 20.698 19.4447 20.5873 19.3456C20.3054 19.1277 20.2651 18.7314 20.4765 18.4541C21.3222 17.404 22.7316 15.175 22.7114 12.0545C22.7014 8.9934 21.302 6.79417 20.4765 5.7639C20.255 5.48652 20.3054 5.09027 20.5873 4.87232C20.8691 4.65438 21.2718 4.70391 21.4933 4.98129C22.4195 6.14035 23.9899 8.60705 24 12.0545C24.0201 15.5515 22.4295 18.0578 21.4933 19.2367C21.3624 19.3952 21.1812 19.4744 20.9899 19.4744L20.9799 19.4843Z" fill="currentColor"/>
    </g>
    <defs>
        <clipPath id="clip0_52_11413">
            <rect width="24" height="18" fill="white" transform="translate(0 3)"/>
        </clipPath>
    </defs>
</svg>
