<svg viewBox="0 0 24 23" fill="none" xmlns="http://www.w3.org/2000/svg">
    <path fill-rule="evenodd" clip-rule="evenodd" d="M0.396275 22.8081C0.518205 22.9394 0.680779 23 0.843353 23C1.00593 23 1.1685 22.9394 1.29043 22.8182L7.01455 17.1698L11.685 20.2323C11.8679 20.3535 12.0711 20.4141 12.2743 20.4141V20.4242C12.4471 20.4242 12.6096 20.3737 12.7722 20.2929C13.1888 20.0707 13.453 19.5959 13.453 19.0505V10.8165L15.2513 9.04198C15.6382 9.49211 15.9025 10.0014 16.044 10.5455C16.5013 12.3435 15.3633 13.8687 15.1296 14.1616C14.9162 14.4344 14.9568 14.8283 15.2312 15.0505C15.3416 15.1503 15.4817 15.191 15.6223 15.1919L15.6173 15.1919H15.6274L15.6223 15.1919C15.8135 15.1905 15.9943 15.1098 16.1152 14.9596C16.42 14.5859 17.8832 12.6162 17.2735 10.2425C17.0869 9.48083 16.6914 8.76641 16.1512 8.15393L17.5766 6.7474C17.5992 6.8151 17.6336 6.88008 17.6799 6.93934C18.2896 7.71712 19.3158 9.34338 19.326 11.6363C19.3463 13.9595 18.2997 15.6161 17.6799 16.404C17.4564 16.6767 17.5072 17.0808 17.7815 17.2929C17.9035 17.3838 18.0356 17.4242 18.1778 17.4242C18.3607 17.4242 18.5538 17.3434 18.6757 17.1818C19.3971 16.2727 20.6063 14.3333 20.5961 11.6262C20.5859 8.95955 19.387 7.05046 18.6757 6.15147C18.5962 6.05453 18.495 5.98694 18.3851 5.94961L20.1393 4.21856C20.1619 4.28394 20.1956 4.34669 20.2405 4.40407C21.1651 5.56568 22.7096 8.03033 22.7299 11.4849C22.7502 14.9899 21.1753 17.5051 20.2405 18.6869C20.0169 18.9596 20.0677 19.3637 20.3421 19.5758C20.464 19.6667 20.5961 19.7071 20.7384 19.7071C20.9213 19.7071 21.1143 19.6263 21.2362 19.4647C22.2726 18.1515 24.0203 15.3637 24 11.4748C23.9797 7.64649 22.2625 4.90912 21.2362 3.61619C21.1583 3.52115 21.0595 3.45432 20.9521 3.41656L23.3294 1.07071C23.5732 0.828283 23.5732 0.424242 23.3294 0.181818C23.0855 -0.060606 22.6892 -0.060606 22.4352 0.181818L13.453 9.04113V3.80805C13.453 3.2626 13.1888 2.78785 12.7722 2.56563C12.4268 2.37371 12.0203 2.39391 11.685 2.61613L5.92379 6.39391C5.75105 6.50502 5.63928 6.70704 5.63928 6.91916V15.9293C5.63928 16.1414 5.74089 16.3333 5.92379 16.4545L5.93158 16.4596L0.396275 21.9192C0.152414 22.1616 0.152414 22.5657 0.396275 22.8081ZM7.93612 16.2604L12.1829 19.0505V12.0698L7.93612 16.2604ZM12.1829 10.2939L6.90939 15.4952V7.2626L12.1829 3.80805V10.2939ZM1.22947 6.70703H3.72904V6.71713C4.07451 6.71713 4.35902 6.98986 4.35902 7.3434V15.5252C4.35902 15.8686 4.07451 16.1515 3.72904 16.1515H1.22947C0.548688 16.1515 0 15.606 0 14.9293V7.92925C0 7.25249 0.548688 6.70703 1.22947 6.70703Z" fill="currentColor"/>
</svg>
