<svg xmlns="http://www.w3.org/2000/svg" width="21" height="24" viewBox="0 0 21 24" fill="none">
    <g clip-path="url(#clip0_52_11451)">
        <path d="M10.2229 24C10.2229 24 10.1479 24 10.1158 24C7.38613 23.9679 4.8277 22.8867 2.91155 20.9277C1.00611 18.9795 -0.0322454 16.3996 -0.000131235 13.6699C0.0319829 10.3729 1.66981 7.2792 4.3781 5.38446C4.85982 5.05262 5.53421 5.15966 5.86606 5.65208C6.20861 6.13379 6.09086 6.80819 5.59844 7.14004C3.4575 8.6387 2.16222 11.0794 2.14081 13.6913C2.098 18.1445 5.68408 21.8162 10.1372 21.859C10.1694 21.859 10.1908 21.859 10.2229 21.859C14.6439 21.859 18.2621 18.2837 18.305 13.8626C18.3371 11.0151 16.9026 8.4139 14.4834 6.90453C13.9802 6.5941 13.8304 5.9304 14.1408 5.42728C14.4513 4.92416 15.1149 4.77429 15.6181 5.08473C18.6796 6.99017 20.4887 10.2765 20.4459 13.8733C20.3924 19.4719 15.8108 23.9893 10.2229 23.9893V24Z" fill="currentColor"/>
        <path d="M10.2231 12.6209C9.6343 12.6209 9.15259 12.1392 9.15259 11.5504V1.07047C9.15259 0.481713 9.6343 0 10.2231 0C10.8118 0 11.2935 0.481713 11.2935 1.07047V11.5504C11.2935 12.1392 10.8118 12.6209 10.2231 12.6209Z" fill="currentColor"/>
    </g>
    <defs>
        <clipPath id="clip0_52_11451">
            <rect width="20.446" height="24" fill="white"/>
        </clipPath>
    </defs>
</svg>