<svg xmlns="http://www.w3.org/2000/svg" width="32" height="32" viewBox="0 0 40 40" fill="none">
    <rect width="40" height="40" rx="20" fill="currentColor"/>
    <path d="M13.5108 9.18046C13.5108 9.18046 13.4113 9.1814 13.369 9.21023C13.3122 9.22498 13.2842 9.26788 13.2276 9.29685C13.1994 9.31133 13.1711 9.32581 13.1429 9.3545L10.2682 11.997C10.1131 12.1264 10.0297 12.3262 10.0316 12.5251L10.1627 26.4108C10.1648 26.624 10.2661 26.822 10.4238 26.9626L13.3601 29.337C13.3601 29.337 13.4172 29.3649 13.4457 29.3789C13.4886 29.4069 13.5315 29.4349 13.5743 29.4487C13.6171 29.4625 13.6741 29.4762 13.7167 29.4758C13.7451 29.4755 13.7737 29.4895 13.8163 29.4891L29.0948 29.3448C29.4927 29.341 29.8025 29.0254 29.7987 28.6275L29.6201 9.71058C29.6163 9.31263 29.3007 9.00291 28.9027 9.00667L13.6243 9.15096C13.6243 9.15096 13.5533 9.16585 13.5249 9.16612L13.5108 9.18046ZM28.2056 10.4488L28.3707 27.9303L14.5135 28.0611L14.3483 10.5655L28.2055 10.4346L28.2056 10.4488Z" fill="white"/>
    <path d="M22.4684 15.5205C22.1869 15.8075 22.191 16.248 22.478 16.5296L24.4148 18.4302L16.5837 18.5041C16.1857 18.5079 15.876 18.8235 15.8797 19.2215C15.8835 19.6194 16.1991 19.9291 16.5971 19.9254L24.4282 19.8514L22.5135 21.8026C22.232 22.0895 22.2361 22.5301 22.5231 22.8117C22.81 23.0932 23.2506 23.0891 23.5322 22.8021L26.6435 19.6315C26.7702 19.5024 26.8537 19.3168 26.852 19.1321C26.8502 18.9473 26.7774 18.7632 26.6341 18.6366L23.4634 15.5253C23.1765 15.2438 22.7359 15.2479 22.4543 15.5349L22.4684 15.5205Z" fill="white"/>
</svg>