<svg xmlns="http://www.w3.org/2000/svg" viewBox="0 0 18 24" fill="none">
    <g clip-path="url(#clip0_52_11240)">
        <path fill-rule="evenodd" clip-rule="evenodd" d="M12.0577 0.236958C11.747 -0.0879377 11.2432 -0.0879377 10.9325 0.236958C10.6218 0.561853 10.6218 1.08861 10.9325 1.41351L15.29 5.96998H8.61812C3.86414 5.96998 -0.00634766 10.0021 -0.00634766 14.9883C-0.00634766 19.9594 3.84973 24.0066 8.61812 24.0066H11.6606C12.1 24.0066 12.4562 23.6341 12.4562 23.1746C12.4562 22.7152 12.1 22.3427 11.6606 22.3427H8.61812C4.73022 22.3427 1.58488 19.0422 1.58488 14.9883C1.58488 10.9228 4.74127 7.63387 8.61812 7.63387H15.29L10.9325 12.1904C10.6218 12.5153 10.6218 13.042 10.9325 13.3669C11.2432 13.6918 11.747 13.6918 12.0577 13.3669L17.7734 7.39021C17.9226 7.23419 18.0064 7.02258 18.0064 6.80194C18.0064 6.58129 17.9226 6.36968 17.7734 6.21366L12.0577 0.236958Z" fill="currentColor"/>
    </g>
    <defs>
        <clipPath id="clip0_52_11240">
            <rect width="18" height="24" fill="white"/>
        </clipPath>
    </defs>
</svg>
