<svg viewBox="0 0 20 24" fill="none" xmlns="http://www.w3.org/2000/svg">
    <path fill-rule="evenodd" clip-rule="evenodd" d="M13.0577 0.236958C12.747 -0.0879377 12.2432 -0.0879377 11.9325 0.236958C11.6218 0.561853 11.6218 1.08861 11.9325 1.41351L16.29 5.96998H9.61812C4.86414 5.96998 0.993652 10.0021 0.993652 14.9883C0.993652 19.9594 4.84973 24.0066 9.61812 24.0066H12.6606C13.1 24.0066 13.4562 23.6341 13.4562 23.1746C13.4562 22.7152 13.1 22.3427 12.6606 22.3427H9.61812C5.73022 22.3427 2.58488 19.0422 2.58488 14.9883C2.58488 10.9228 5.74127 7.63387 9.61812 7.63387H16.29L11.9325 12.1904C11.6218 12.5153 11.6218 13.042 11.9325 13.3669C12.2432 13.6918 12.747 13.6918 13.0577 13.3669L18.7734 7.39021C18.9226 7.23419 19.0064 7.02258 19.0064 6.80194C19.0064 6.58129 18.9226 6.36968 18.7734 6.21366L13.0577 0.236958Z" fill="currentColor"/>
</svg>
