<svg xmlns="http://www.w3.org/2000/svg" viewBox="0 0 24 24" fill="none">
    <path fill-rule="evenodd" clip-rule="evenodd" d="M1.37167 11.7522C1.69073 11.6067 2.06733 11.7474 2.21283 12.0665C2.76004 13.2665 3.50859 14.3315 4.40038 15.2233C4.64835 15.4713 4.64835 15.8733 4.40038 16.1213C4.15242 16.3693 3.75039 16.3693 3.50243 16.1213C2.50461 15.1235 1.66832 13.9331 1.05738 12.5934C0.91189 12.2743 1.0526 11.8977 1.37167 11.7522Z" fill="currentColor"/>
    <path fill-rule="evenodd" clip-rule="evenodd" d="M19.9226 8.00121C19.6585 7.77061 19.2574 7.79783 19.0268 8.06202C18.7961 8.32621 18.8234 8.72731 19.0876 8.95792C20.1472 9.88289 21.0245 11.0296 21.6696 12.3367C19.8815 15.9978 16.1698 18.3521 12.094 18.3899C10.6182 18.3993 9.18901 18.1023 7.87298 17.5547C7.54921 17.42 7.17755 17.5733 7.04284 17.897C6.90813 18.2208 7.0614 18.5925 7.38517 18.7272C8.85247 19.3377 10.4503 19.6705 12.1032 19.6597L12.105 19.6597C16.7716 19.6168 21.007 16.8603 22.9478 12.6034C22.9883 12.5146 23.0067 12.4212 23.0051 12.3296C23.0051 12.2404 22.9862 12.1497 22.9463 12.0633C22.2193 10.4917 21.1909 9.10825 19.9226 8.00121Z" fill="currentColor"/>
    <path fill-rule="evenodd" clip-rule="evenodd" d="M12.0933 6.27986C7.85589 6.24151 3.97881 8.72525 2.2127 12.5934C2.06705 12.9124 1.69039 13.0529 1.37139 12.9073C1.05239 12.7616 0.911864 12.385 1.05751 12.066C3.0296 7.74669 7.35981 4.96821 12.102 5.00999C13.2786 5.0103 14.4173 5.20475 15.4957 5.53574C15.831 5.63863 16.0193 5.99381 15.9164 6.32905C15.8135 6.66428 15.4583 6.85264 15.1231 6.74974C14.1502 6.45112 13.1362 6.27989 12.0991 6.27989H12.0933V6.27986Z" fill="currentColor"/>
    <path fill-rule="evenodd" clip-rule="evenodd" d="M11.9975 8.0376C9.8065 8.0376 8.03033 9.81376 8.03033 12.0048C8.03033 14.1958 9.8065 15.9719 11.9975 15.9719C14.1885 15.9719 15.9647 14.1958 15.9647 12.0048C15.9647 9.81376 14.1885 8.0376 11.9975 8.0376Z" fill="currentColor"/>
    <path fill-rule="evenodd" clip-rule="evenodd" d="M20.0661 5.23084C20.2893 5.50132 20.251 5.90151 19.9805 6.12471L3.76639 19.5044C3.49591 19.7276 3.09572 19.6893 2.87252 19.4188C2.64933 19.1483 2.68766 18.7481 2.95814 18.5249L19.1722 5.14523C19.4427 4.92204 19.8429 4.96037 20.0661 5.23084Z" fill="currentColor"/>
</svg>
