<svg viewBox="0 0 24 24" fill="none" xmlns="http://www.w3.org/2000/svg">
    <path fill-rule="evenodd" clip-rule="evenodd" d="M11.9361 0H12.2754C14.4909 0 16.293 1.80212 16.293 4.01768V6.91164L22.0704 1.13429C22.3248 0.879877 22.7488 0.879877 23.0032 1.13429V1.1449C23.2577 1.39931 23.2577 1.82334 23.0032 2.07776L16.293 8.78459V12.3922C16.293 14.6078 14.4909 16.4099 12.2754 16.4099H11.9361C11.0181 16.4099 10.171 16.1005 9.49374 15.5805L7.90098 17.1724C8.91563 18.2143 10.2632 18.9006 11.7454 18.9965C13.3885 19.0919 15.0634 18.4559 16.3249 17.2156C17.65 15.9011 18.3708 14.0884 18.286 12.2332C18.2754 11.8728 18.5616 11.5654 18.9221 11.5442C19.2825 11.523 19.5899 11.8198 19.6111 12.1802C19.7065 14.417 18.8478 16.6007 17.2471 18.1696V18.159C16.0069 19.3781 14.4379 20.1202 12.8054 20.2898V22.6856H15.286C15.6464 22.6856 15.9432 22.9824 15.9432 23.3428C15.9432 23.7032 15.657 24 15.286 24H9.02097C8.66055 24 8.36373 23.7032 8.36373 23.3428C8.36373 22.9824 8.64995 22.6856 9.02097 22.6856H11.4803V20.2898C9.74311 20.134 8.16776 19.3181 6.97334 18.0996L1.93959 23.1308C1.81238 23.258 1.64277 23.3216 1.47316 23.3216C1.30355 23.3216 1.13394 23.258 1.00673 23.1308C0.752314 22.8764 0.752314 22.4524 1.00673 22.1979L6.12686 17.0778C5.15695 15.6866 4.61329 13.9681 4.70648 12.1696C4.72768 11.8092 5.0245 11.523 5.40612 11.5442C5.76655 11.5654 6.05277 11.8834 6.03157 12.2438C5.95767 13.6565 6.35432 15.0104 7.07387 16.1308L8.59026 14.6144C8.16595 13.9776 7.91846 13.2133 7.91846 12.3922V4.01768C7.91846 1.80212 9.72058 0 11.9361 0Z" fill="currentColor"/>
</svg>
