<svg xmlns="http://www.w3.org/2000/svg" viewBox="0 0 24 24" fill="none">
    <g clip-path="url(#clip0_52_11259)">
        <path d="M11.9362 0H12.2754C14.491 0 16.2931 1.80212 16.2931 4.01768V12.3922C16.2931 14.6078 14.491 16.4099 12.2754 16.4099H11.9362C9.72064 16.4099 7.91852 14.6078 7.91852 12.3922V4.01768C7.91852 1.80212 9.72064 0 11.9362 0Z" fill="currentColor"/>
        <path d="M17.2471 18.1696C18.8478 16.6007 19.7065 14.417 19.6111 12.1802C19.5899 11.8198 19.2825 11.523 18.922 11.5442C18.5616 11.5654 18.2754 11.8728 18.286 12.2332C18.3708 14.0884 17.65 15.9011 16.3249 17.2156C15.0634 18.4559 13.3885 19.0919 11.7454 18.9965C8.46973 18.7845 5.85136 15.6891 6.03157 12.2438C6.05277 11.8834 5.76655 11.5654 5.40612 11.5442C5.0245 11.523 4.72768 11.8092 4.70648 12.1696C4.49446 16.2615 7.57927 19.94 11.4803 20.2898V22.6856H9.02097C8.64995 22.6856 8.36373 22.9824 8.36373 23.3428C8.36373 23.7032 8.66055 24 9.02097 24H15.286C15.657 24 15.9432 23.7032 15.9432 23.3428C15.9432 22.9824 15.6464 22.6856 15.286 22.6856H12.8054V20.2898C14.4379 20.1202 16.0069 19.3781 17.2471 18.159V18.1696Z" fill="currentColor"/>
        <path d="M23.0033 1.13429C22.7489 0.879877 22.3249 0.879877 22.0704 1.13429L1.00679 22.1979C0.752375 22.4524 0.752375 22.8764 1.00679 23.1308C1.134 23.258 1.30361 23.3216 1.47322 23.3216C1.64283 23.3216 1.81244 23.258 1.93965 23.1308L23.0033 2.07776C23.2577 1.82334 23.2577 1.39931 23.0033 1.1449V1.13429Z" fill="currentColor"/>
    </g>
    <defs>
        <clipPath id="clip0_52_11259">
            <rect width="24" height="24" fill="white"/>
        </clipPath>
    </defs>
</svg>
