<svg width="99" height="13" viewBox="0 0 99 13" fill="none" xmlns="http://www.w3.org/2000/svg">
    <path d="M10.52 0.799999H13.096L8.248 12H5.688L0.856 0.799999H3.656L7.064 8.8L10.52 0.799999ZM19.3145 12.192C15.7785 12.192 13.1865 9.728 13.1865 6.4C13.1865 3.072 15.7785 0.608 19.3145 0.608C22.8345 0.608 25.4425 3.056 25.4425 6.4C25.4425 9.744 22.8345 12.192 19.3145 12.192ZM19.3145 9.984C21.3145 9.984 22.8185 8.528 22.8185 6.4C22.8185 4.272 21.3145 2.816 19.3145 2.816C17.3145 2.816 15.8105 4.272 15.8105 6.4C15.8105 8.528 17.3145 9.984 19.3145 9.984ZM27.3905 12V0.799999H29.9825V12H27.3905ZM38.0005 12.192C34.5285 12.192 31.9365 9.776 31.9365 6.4C31.9365 3.024 34.5285 0.608 38.0165 0.608C39.9525 0.608 41.5685 1.312 42.6245 2.592L40.9605 4.128C40.2085 3.264 39.2645 2.816 38.1445 2.816C36.0485 2.816 34.5605 4.288 34.5605 6.4C34.5605 8.512 36.0485 9.984 38.1445 9.984C39.2645 9.984 40.2085 9.536 40.9605 8.656L42.6245 10.192C41.5685 11.488 39.9525 12.192 38.0005 12.192ZM46.9509 9.92H53.0469V12H44.3749V0.799999H52.8389V2.88H46.9509V5.312H52.1509V7.328H46.9509V9.92ZM62.8212 0.799999H65.3813V12H63.2533L57.6693 5.2V12H55.1093V0.799999H57.2533L62.8212 7.6V0.799999ZM70.3511 12V2.912H66.7671V0.799999H76.5271V2.912H72.9431V12H70.3511ZM80.4978 9.92H86.5938V12H77.9218V0.799999H86.3858V2.88H80.4978V5.312H85.6978V7.328H80.4978V9.92ZM98.5761 12H95.7921L93.6321 8.88H93.5041H91.2481V12H88.6561V0.799999H93.5041C96.4961 0.799999 98.3681 2.352 98.3681 4.864C98.3681 6.544 97.5201 7.776 96.0641 8.4L98.5761 12ZM95.7441 4.864C95.7441 3.632 94.9441 2.912 93.3601 2.912H91.2481V6.816H93.3601C94.9441 6.816 95.7441 6.08 95.7441 4.864Z" fill="#D4DCE7"/>
</svg>
