<svg xmlns="http://www.w3.org/2000/svg" width="16" height="16" viewBox="0 0 16 16" fill="none">
    <path fill-rule="evenodd" clip-rule="evenodd" d="M9.15329 2.66681L14.4866 12.0001C14.6036 12.2027 14.6652 12.4325 14.6653 12.6665C14.6653 12.9004 14.6038 13.1302 14.487 13.3329C14.3701 13.5355 14.202 13.7039 13.9995 13.821C13.797 13.9381 13.5672 13.9999 13.3333 14.0001H2.66662C2.43156 14.0023 2.20011 13.9422 1.99575 13.826C1.79138 13.7099 1.62136 13.5417 1.50292 13.3387C1.38447 13.1356 1.32181 12.9049 1.32129 12.6698C1.32077 12.4347 1.38241 12.2037 1.49995 12.0001L6.83329 2.66681C6.94958 2.46162 7.11822 2.29094 7.322 2.17219C7.52579 2.05345 7.75743 1.99088 7.99329 1.99088C8.22915 1.99088 8.46078 2.05345 8.66457 2.17219C8.86836 2.29094 9.037 2.46162 9.15329 2.66681ZM8.67411 11.3333C8.67411 11.0112 8.44566 10.7422 8.14189 10.68L8.0081 10.6663H8.00028C7.6321 10.6663 7.3333 10.9651 7.33329 11.3333C7.33329 11.7015 7.63209 12.0003 8.00028 12.0003H8.0081L8.14189 11.9866C8.44566 11.9245 8.67411 11.6555 8.67411 11.3333ZM8.66728 6.00032C8.66728 5.63224 8.36832 5.3335 8.00028 5.33333C7.63209 5.33333 7.33329 5.63213 7.33329 6.00032V8.66731C7.33364 9.0352 7.63231 9.33333 8.00028 9.33333C8.36811 9.33315 8.66693 9.03509 8.66728 8.66731V6.00032Z" fill="#FC9405"/>
</svg>